<?xml version="1.0" encoding="utf-8"?>
<!-- Generator: Adobe Illustrator 12.0.1, SVG Export Plug-In . SVG Version: 6.00 Build 51448)  -->
<!DOCTYPE svg PUBLIC "-//W3C//DTD SVG 1.1//EN" "http://www.w3.org/Graphics/SVG/1.1/DTD/svg11.dtd" [
	<!ENTITY ns_svg "http://www.w3.org/2000/svg">
	<!ENTITY ns_xlink "http://www.w3.org/1999/xlink">
]>
<svg  version="1.1" id="Layer_1" xmlns="&ns_svg;" xmlns:xlink="&ns_xlink;" width="59.768" height="59.496"
	 viewBox="0 0 59.768 59.496" overflow="visible" enable-background="new 0 0 59.768 59.496" xml:space="preserve">
<g>
	<g>
		<g>
			<linearGradient id="XMLID_12_" gradientUnits="userSpaceOnUse" x1="44.3057" y1="65.9727" x2="15.4632" y2="4.1198">
				<stop  offset="0.0022" style="stop-color:#E8EDF6"/>
				<stop  offset="0.0405" style="stop-color:#F2F5FB"/>
				<stop  offset="0.0839" style="stop-color:#F8FAFD"/>
				<stop  offset="0.4128" style="stop-color:#F8FAFD"/>
				<stop  offset="0.5515" style="stop-color:#EEF1F7"/>
				<stop  offset="1" style="stop-color:#D2DCEB"/>
			</linearGradient>
			<rect x="0.5" y="11.097" fill="url(#XMLID_12_)" stroke="#526785" width="58.768" height="47.899"/>
			<linearGradient id="XMLID_13_" gradientUnits="userSpaceOnUse" x1="29.8843" y1="11.0967" x2="29.8843" y2="0.5">
				<stop  offset="0" style="stop-color:#FEFDF0"/>
				<stop  offset="1.162492e-004" style="stop-color:#FEF6E0"/>
				<stop  offset="4.030973e-004" style="stop-color:#FDECC2"/>
				<stop  offset="7.259119e-004" style="stop-color:#FCE3A7"/>
				<stop  offset="0.0011" style="stop-color:#FBDC91"/>
				<stop  offset="0.0015" style="stop-color:#FBD680"/>
				<stop  offset="0.002" style="stop-color:#FAD372"/>
				<stop  offset="0.0025" style="stop-color:#FAD068"/>
				<stop  offset="0.0034" style="stop-color:#FACE62"/>
				<stop  offset="0.0056" style="stop-color:#FACE60"/>
				<stop  offset="1" style="stop-color:#FAEFB4"/>
			</linearGradient>
			<rect x="0.5" y="0.5" fill="url(#XMLID_13_)" stroke="#CF8829" width="58.768" height="10.597"/>
		</g>
		<rect x="1.186" y="11.668" opacity="0.3" fill="#FFFFFF" width="57.463" height="46.836"/>
	</g>
	<linearGradient id="XMLID_14_" gradientUnits="userSpaceOnUse" x1="23.7188" y1="35.0498" x2="20.8037" y2="35.0498">
		<stop  offset="0" style="stop-color:#C9C8D2"/>
		<stop  offset="0.5169" style="stop-color:#D8D7E3"/>
		<stop  offset="1" style="stop-color:#EFEEF2"/>
	</linearGradient>
	<rect x="20.804" y="11.602" opacity="0.45" fill="url(#XMLID_14_)" width="2.915" height="46.896"/>
	<linearGradient id="XMLID_15_" gradientUnits="userSpaceOnUse" x1="31.4688" y1="35.0498" x2="28.5542" y2="35.0498">
		<stop  offset="0" style="stop-color:#C9C8D2"/>
		<stop  offset="0.5169" style="stop-color:#D8D7E3"/>
		<stop  offset="1" style="stop-color:#EFEEF2"/>
	</linearGradient>
	<rect x="28.554" y="11.602" opacity="0.45" fill="url(#XMLID_15_)" width="2.915" height="46.896"/>
	<linearGradient id="XMLID_16_" gradientUnits="userSpaceOnUse" x1="39.2188" y1="35.0498" x2="36.3037" y2="35.0498">
		<stop  offset="0" style="stop-color:#C9C8D2"/>
		<stop  offset="0.5169" style="stop-color:#D8D7E3"/>
		<stop  offset="1" style="stop-color:#EFEEF2"/>
	</linearGradient>
	<rect x="36.304" y="11.602" opacity="0.45" fill="url(#XMLID_16_)" width="2.915" height="46.896"/>
	<linearGradient id="XMLID_17_" gradientUnits="userSpaceOnUse" x1="46.9688" y1="35.0498" x2="44.0537" y2="35.0498">
		<stop  offset="0" style="stop-color:#C9C8D2"/>
		<stop  offset="0.5169" style="stop-color:#D8D7E3"/>
		<stop  offset="1" style="stop-color:#EFEEF2"/>
	</linearGradient>
	<rect x="44.054" y="11.602" opacity="0.45" fill="url(#XMLID_17_)" width="2.915" height="46.896"/>
	<linearGradient id="XMLID_18_" gradientUnits="userSpaceOnUse" x1="54.7188" y1="35.0498" x2="51.8037" y2="35.0498">
		<stop  offset="0" style="stop-color:#C9C8D2"/>
		<stop  offset="0.5169" style="stop-color:#D8D7E3"/>
		<stop  offset="1" style="stop-color:#EFEEF2"/>
	</linearGradient>
	<rect x="51.804" y="11.602" opacity="0.45" fill="url(#XMLID_18_)" width="2.915" height="46.896"/>
	<linearGradient id="XMLID_19_" gradientUnits="userSpaceOnUse" x1="8.2188" y1="35.0498" x2="5.3037" y2="35.0498">
		<stop  offset="0" style="stop-color:#C9C8D2"/>
		<stop  offset="0.5169" style="stop-color:#D8D7E3"/>
		<stop  offset="1" style="stop-color:#EFEEF2"/>
	</linearGradient>
	<rect x="5.304" y="11.602" opacity="0.45" fill="url(#XMLID_19_)" width="2.915" height="46.896"/>
	<g opacity="0.1">
		<polyline fill="none" stroke="#231F20" stroke-width="3" stroke-linecap="round" points="4.594,53.688 18.917,37.006 
			26.837,48.465 33.914,38.354 37.958,24.874 42.508,35.321 51.943,20.325 		"/>
		<polyline fill="none" stroke="#231F20" stroke-linecap="round" points="51.943,20.325 42.508,35.321 37.958,24.874 33.914,38.354 
			26.837,48.465 18.917,37.006 4.594,53.688 		"/>
	</g>
	<linearGradient id="XMLID_20_" gradientUnits="userSpaceOnUse" x1="15.9688" y1="35.0498" x2="13.0537" y2="35.0498">
		<stop  offset="0" style="stop-color:#C9C8D2"/>
		<stop  offset="0.5169" style="stop-color:#D8D7E3"/>
		<stop  offset="1" style="stop-color:#EFEEF2"/>
	</linearGradient>
	<rect x="13.054" y="11.602" opacity="0.45" fill="url(#XMLID_20_)" width="2.915" height="46.896"/>
	<g>
		<polyline fill="none" stroke="#0B6C9F" stroke-width="3" stroke-linecap="round" points="4.496,51.299 18.819,34.617 
			26.739,46.075 33.816,35.965 37.86,22.485 42.41,32.932 51.846,17.936 		"/>
		<polyline fill="none" stroke="#C7D7E0" stroke-linecap="round" points="51.846,17.936 42.41,32.932 37.86,22.485 33.816,35.965 
			26.739,46.075 18.819,34.617 4.496,51.299 		"/>
	</g>
	<linearGradient id="XMLID_21_" gradientUnits="userSpaceOnUse" x1="20.2246" y1="24.5693" x2="-1.7798" y2="2.5655">
		<stop  offset="0.0052" style="stop-color:#FFFFFF"/>
		<stop  offset="0.122" style="stop-color:#FBFBFB"/>
		<stop  offset="0.2461" style="stop-color:#EEEEEE"/>
		<stop  offset="0.3737" style="stop-color:#D9D9D9"/>
		<stop  offset="0.5036" style="stop-color:#BBBBBB"/>
		<stop  offset="0.6355" style="stop-color:#949494"/>
		<stop  offset="0.7688" style="stop-color:#656565"/>
		<stop  offset="0.9009" style="stop-color:#2F2F2F"/>
		<stop  offset="1" style="stop-color:#010101"/>
	</linearGradient>
	<polygon opacity="0.2" fill="url(#XMLID_21_)" points="41.815,12.102 3.056,12.102 1.497,12.102 1.497,13.66 1.497,39.9 
		3.056,39.9 3.056,13.66 41.815,13.66 	"/>
	
		<linearGradient id="XMLID_22_" gradientUnits="userSpaceOnUse" x1="93.6787" y1="-3145.605" x2="71.6743" y2="-3167.6089" gradientTransform="matrix(-1 0 0 -1 133.3125 -3099.9971)">
		<stop  offset="0.0052" style="stop-color:#FFFFFF"/>
		<stop  offset="0.122" style="stop-color:#FBFBFB"/>
		<stop  offset="0.2461" style="stop-color:#EEEEEE"/>
		<stop  offset="0.3737" style="stop-color:#D9D9D9"/>
		<stop  offset="0.5036" style="stop-color:#BBBBBB"/>
		<stop  offset="0.6355" style="stop-color:#949494"/>
		<stop  offset="0.7688" style="stop-color:#656565"/>
		<stop  offset="0.9009" style="stop-color:#2F2F2F"/>
		<stop  offset="1" style="stop-color:#010101"/>
	</linearGradient>
	<polygon opacity="0.2" fill="url(#XMLID_22_)" points="18.043,58.075 56.803,58.075 58.361,58.075 58.361,56.517 58.361,30.276 
		56.803,30.276 56.803,56.517 18.043,56.517 	"/>
	<path opacity="0.64" fill="#FFFFFF" d="M27.427,1.533H1.511v4.163c0,0,4.003-6.164,2.167-3.286
		C3.836,2.516,5.062,1.533,27.427,1.533z"/>
</g>
</svg>
