<?xml version="1.0" encoding="utf-8"?>
<!-- Generator: Adobe Illustrator 12.0.1, SVG Export Plug-In . SVG Version: 6.00 Build 51448)  -->
<!DOCTYPE svg PUBLIC "-//W3C//DTD SVG 1.1//EN" "http://www.w3.org/Graphics/SVG/1.1/DTD/svg11.dtd" [
	<!ENTITY ns_svg "http://www.w3.org/2000/svg">
	<!ENTITY ns_xlink "http://www.w3.org/1999/xlink">
]>
<svg  version="1.1" id="Layer_1" xmlns="&ns_svg;" xmlns:xlink="&ns_xlink;" width="60.164" height="59.299"
	 viewBox="0 0 60.164 59.299" overflow="visible" enable-background="new 0 0 60.164 59.299" xml:space="preserve">
<g>
	<g>
		<linearGradient id="XMLID_18_" gradientUnits="userSpaceOnUse" x1="18.0142" y1="3.2422" x2="18.0142" y2="12.7315">
			<stop  offset="0" style="stop-color:#7FB89D"/>
			<stop  offset="1" style="stop-color:#689989"/>
		</linearGradient>
		<rect fill="url(#XMLID_18_)" width="36.028" height="15.079"/>
		<linearGradient id="XMLID_19_" gradientUnits="userSpaceOnUse" x1="18.0142" y1="1.6802" x2="18.0142" y2="13.9007">
			<stop  offset="0" style="stop-color:#E6E89F"/>
			<stop  offset="1" style="stop-color:#B0C895"/>
		</linearGradient>
		<path fill="url(#XMLID_19_)" d="M34.589,13.87c0-2.814,0-9.844,0-12.661c-2.339,0-30.81,0-33.148,0c0,2.817,0,9.847,0,12.661
			C3.779,13.87,32.25,13.87,34.589,13.87z"/>
		<path opacity="0.64" fill="#FFFFFF" d="M34.869,1.209H1.44v12.46c0,0,2.988-18.44,1.62-9.831
			C3.178,4.159,18.163,1.209,34.869,1.209z"/>
	</g>
	<linearGradient id="XMLID_20_" gradientUnits="userSpaceOnUse" x1="18.0142" y1="30.5283" x2="18.0142" y2="21.0393">
		<stop  offset="0" style="stop-color:#A67F2D"/>
		<stop  offset="1" style="stop-color:#BA972F"/>
	</linearGradient>
	<rect y="18.691" fill="url(#XMLID_20_)" width="36.028" height="15.079"/>
	<linearGradient id="XMLID_21_" gradientUnits="userSpaceOnUse" x1="18.0142" y1="20.3716" x2="18.0142" y2="32.5926">
		<stop  offset="0" style="stop-color:#FDF5DA"/>
		<stop  offset="0.8764" style="stop-color:#FADB87"/>
	</linearGradient>
	<path fill="url(#XMLID_21_)" d="M34.589,32.562c0-2.814,0-9.843,0-12.661c-2.339,0-30.81,0-33.148,0c0,2.818,0,9.847,0,12.661
		C3.779,32.562,32.25,32.562,34.589,32.562z"/>
	<path opacity="0.64" fill="#FFFFFF" d="M34.869,19.9H1.44v12.46c0,0,2.988-18.439,1.62-9.831C3.178,22.851,18.163,19.9,34.869,19.9
		z"/>
	<g>
		<linearGradient id="XMLID_22_" gradientUnits="userSpaceOnUse" x1="18.0142" y1="40.625" x2="18.0142" y2="50.1143">
			<stop  offset="0" style="stop-color:#7693C1"/>
			<stop  offset="1" style="stop-color:#5F7CAF"/>
		</linearGradient>
		<rect y="37.383" fill="url(#XMLID_22_)" width="36.028" height="15.079"/>
		<linearGradient id="XMLID_23_" gradientUnits="userSpaceOnUse" x1="18.0151" y1="50.7822" x2="18.0151" y2="38.5617">
			<stop  offset="0" style="stop-color:#B1CDD8"/>
			<stop  offset="1" style="stop-color:#E3EBF1"/>
		</linearGradient>
		<path fill="url(#XMLID_23_)" d="M34.589,51.253c0-2.814,0-9.845,0-12.661c-2.339,0-30.81,0-33.148,0c0,2.816,0,9.847,0,12.661
			C3.779,51.253,32.25,51.253,34.589,51.253z"/>
		<path opacity="0.64" fill="#FFFFFF" d="M34.869,38.592H1.44v12.459c0,0,2.988-18.439,1.62-9.83
			C3.178,41.541,18.163,38.592,34.869,38.592z"/>
	</g>
	<linearGradient id="XMLID_24_" gradientUnits="userSpaceOnUse" x1="49.0215" y1="63.7617" x2="28.5055" y2="19.7651">
		<stop  offset="0.0022" style="stop-color:#E8EDF6"/>
		<stop  offset="0.0405" style="stop-color:#F2F5FB"/>
		<stop  offset="0.0839" style="stop-color:#F8FAFD"/>
		<stop  offset="0.4128" style="stop-color:#F8FAFD"/>
		<stop  offset="0.5515" style="stop-color:#EEF1F7"/>
		<stop  offset="1" style="stop-color:#D2DCEB"/>
	</linearGradient>
	<rect x="17.862" y="24.727" fill="url(#XMLID_24_)" stroke="#526785" width="41.802" height="34.072"/>
	<rect x="18.351" y="25.134" opacity="0.3" fill="#FFFFFF" width="40.874" height="33.315"/>
	<linearGradient id="XMLID_25_" gradientUnits="userSpaceOnUse" x1="34.3779" y1="41.7646" x2="32.3047" y2="41.7646">
		<stop  offset="0" style="stop-color:#C9C8D2"/>
		<stop  offset="0.5169" style="stop-color:#D8D7E3"/>
		<stop  offset="1" style="stop-color:#EFEEF2"/>
	</linearGradient>
	<rect x="32.305" y="25.086" opacity="0.45" fill="url(#XMLID_25_)" width="2.073" height="33.357"/>
	<linearGradient id="XMLID_26_" gradientUnits="userSpaceOnUse" x1="39.8906" y1="41.7646" x2="37.8174" y2="41.7646">
		<stop  offset="0" style="stop-color:#C9C8D2"/>
		<stop  offset="0.5169" style="stop-color:#D8D7E3"/>
		<stop  offset="1" style="stop-color:#EFEEF2"/>
	</linearGradient>
	<rect x="37.817" y="25.086" opacity="0.45" fill="url(#XMLID_26_)" width="2.073" height="33.357"/>
	<linearGradient id="XMLID_27_" gradientUnits="userSpaceOnUse" x1="45.4033" y1="41.7646" x2="43.3301" y2="41.7646">
		<stop  offset="0" style="stop-color:#C9C8D2"/>
		<stop  offset="0.5169" style="stop-color:#D8D7E3"/>
		<stop  offset="1" style="stop-color:#EFEEF2"/>
	</linearGradient>
	<rect x="43.33" y="25.086" opacity="0.45" fill="url(#XMLID_27_)" width="2.073" height="33.357"/>
	<linearGradient id="XMLID_28_" gradientUnits="userSpaceOnUse" x1="50.916" y1="41.7646" x2="48.8428" y2="41.7646">
		<stop  offset="0" style="stop-color:#C9C8D2"/>
		<stop  offset="0.5169" style="stop-color:#D8D7E3"/>
		<stop  offset="1" style="stop-color:#EFEEF2"/>
	</linearGradient>
	<rect x="48.843" y="25.086" opacity="0.45" fill="url(#XMLID_28_)" width="2.073" height="33.357"/>
	<linearGradient id="XMLID_29_" gradientUnits="userSpaceOnUse" x1="56.4287" y1="41.7646" x2="54.3555" y2="41.7646">
		<stop  offset="0" style="stop-color:#C9C8D2"/>
		<stop  offset="0.5169" style="stop-color:#D8D7E3"/>
		<stop  offset="1" style="stop-color:#EFEEF2"/>
	</linearGradient>
	<rect x="54.355" y="25.086" opacity="0.45" fill="url(#XMLID_29_)" width="2.073" height="33.357"/>
	<linearGradient id="XMLID_30_" gradientUnits="userSpaceOnUse" x1="23.3525" y1="41.7646" x2="21.2793" y2="41.7646">
		<stop  offset="0" style="stop-color:#C9C8D2"/>
		<stop  offset="0.5169" style="stop-color:#D8D7E3"/>
		<stop  offset="1" style="stop-color:#EFEEF2"/>
	</linearGradient>
	<rect x="21.279" y="25.086" opacity="0.45" fill="url(#XMLID_30_)" width="2.073" height="33.357"/>
	<g opacity="0.1">
		<polyline fill="none" stroke="#231F20" stroke-width="3" stroke-linecap="round" points="20.774,55.022 30.962,43.156 
			36.596,51.307 41.63,44.116 44.506,34.527 47.742,41.958 54.454,31.291 		"/>
		<polyline fill="none" stroke="#231F20" stroke-linecap="round" points="54.454,31.291 47.742,41.958 44.506,34.527 41.63,44.116 
			36.596,51.307 30.962,43.156 20.774,55.022 		"/>
	</g>
	<linearGradient id="XMLID_31_" gradientUnits="userSpaceOnUse" x1="28.8662" y1="41.7646" x2="26.792" y2="41.7646">
		<stop  offset="0" style="stop-color:#C9C8D2"/>
		<stop  offset="0.5169" style="stop-color:#D8D7E3"/>
		<stop  offset="1" style="stop-color:#EFEEF2"/>
	</linearGradient>
	<rect x="26.792" y="25.086" opacity="0.45" fill="url(#XMLID_31_)" width="2.074" height="33.357"/>
	<g>
		<polyline fill="none" stroke="#0B6C9F" stroke-width="3" stroke-linecap="round" points="20.704,53.323 30.894,41.457 
			36.527,49.607 41.561,42.417 44.438,32.828 47.674,40.26 54.385,29.592 		"/>
		<polyline fill="none" stroke="#C7D7E0" stroke-linecap="round" points="54.385,29.592 47.674,40.26 44.438,32.828 41.561,42.417 
			36.527,49.607 30.894,41.457 20.704,53.323 		"/>
	</g>
	<linearGradient id="XMLID_32_" gradientUnits="userSpaceOnUse" x1="31.8926" y1="34.3096" x2="16.2409" y2="18.6583">
		<stop  offset="0.0052" style="stop-color:#FFFFFF"/>
		<stop  offset="0.122" style="stop-color:#FBFBFB"/>
		<stop  offset="0.2461" style="stop-color:#EEEEEE"/>
		<stop  offset="0.3737" style="stop-color:#D9D9D9"/>
		<stop  offset="0.5036" style="stop-color:#BBBBBB"/>
		<stop  offset="0.6355" style="stop-color:#949494"/>
		<stop  offset="0.7688" style="stop-color:#656565"/>
		<stop  offset="0.9009" style="stop-color:#2F2F2F"/>
		<stop  offset="1" style="stop-color:#010101"/>
	</linearGradient>
	<polygon opacity="0.2" fill="url(#XMLID_32_)" points="47.25,25.442 19.681,25.442 18.571,25.442 18.571,26.55 18.571,45.215 
		19.681,45.215 19.681,26.55 47.25,26.55 	"/>
	
		<linearGradient id="XMLID_33_" gradientUnits="userSpaceOnUse" x1="84.6133" y1="-3154.0415" x2="68.9623" y2="-3169.6921" gradientTransform="matrix(-1 0 0 -1 130.3125 -3104.7666)">
		<stop  offset="0.0052" style="stop-color:#FFFFFF"/>
		<stop  offset="0.122" style="stop-color:#FBFBFB"/>
		<stop  offset="0.2461" style="stop-color:#EEEEEE"/>
		<stop  offset="0.3737" style="stop-color:#D9D9D9"/>
		<stop  offset="0.5036" style="stop-color:#BBBBBB"/>
		<stop  offset="0.6355" style="stop-color:#949494"/>
		<stop  offset="0.7688" style="stop-color:#656565"/>
		<stop  offset="0.9009" style="stop-color:#2F2F2F"/>
		<stop  offset="1" style="stop-color:#010101"/>
	</linearGradient>
	<polygon opacity="0.2" fill="url(#XMLID_33_)" points="30.341,58.143 57.911,58.143 59.02,58.143 59.02,57.035 59.02,38.369 
		57.911,38.369 57.911,57.035 30.341,57.035 	"/>
	<path opacity="0.64" fill="#FFFFFF" d="M37.017,17.924H18.582v2.961c0,0,2.847-4.385,1.54-2.338
		C20.236,18.624,21.107,17.924,37.017,17.924z"/>
	<linearGradient id="XMLID_34_" gradientUnits="userSpaceOnUse" x1="38.7627" y1="24.7271" x2="38.7627" y2="17.1895">
		<stop  offset="0" style="stop-color:#FEFDF0"/>
		<stop  offset="1.162492e-004" style="stop-color:#FEF6E0"/>
		<stop  offset="4.030973e-004" style="stop-color:#FDECC2"/>
		<stop  offset="7.259119e-004" style="stop-color:#FCE3A7"/>
		<stop  offset="0.0011" style="stop-color:#FBDC91"/>
		<stop  offset="0.0015" style="stop-color:#FBD680"/>
		<stop  offset="0.002" style="stop-color:#FAD372"/>
		<stop  offset="0.0025" style="stop-color:#FAD068"/>
		<stop  offset="0.0034" style="stop-color:#FACE62"/>
		<stop  offset="0.0056" style="stop-color:#FACE60"/>
		<stop  offset="1" style="stop-color:#FAEFB4"/>
	</linearGradient>
	<rect x="17.862" y="17.189" fill="url(#XMLID_34_)" stroke="#CF8829" width="41.802" height="7.538"/>
</g>
</svg>
