<?xml version="1.0" encoding="utf-8"?>
<!-- Generator: Adobe Illustrator 12.0.1, SVG Export Plug-In . SVG Version: 6.00 Build 51448)  -->
<!DOCTYPE svg PUBLIC "-//W3C//DTD SVG 1.1//EN" "http://www.w3.org/Graphics/SVG/1.1/DTD/svg11.dtd" [
	<!ENTITY ns_svg "http://www.w3.org/2000/svg">
	<!ENTITY ns_xlink "http://www.w3.org/1999/xlink">
]>
<svg  version="1.1" id="Layer_1" xmlns="&ns_svg;" xmlns:xlink="&ns_xlink;" width="59.089" height="48.818"
	 viewBox="0 0 59.089 48.818" overflow="visible" enable-background="new 0 0 59.089 48.818" xml:space="preserve">
<g>
	<g>
		<linearGradient id="XMLID_6_" gradientUnits="userSpaceOnUse" x1="29.5444" y1="9.04" x2="29.5444" y2="47.131">
			<stop  offset="0" style="stop-color:#EBC38C"/>
			<stop  offset="0.3151" style="stop-color:#B09F81"/>
			<stop  offset="1" style="stop-color:#3D6669"/>
		</linearGradient>
		<path fill="url(#XMLID_6_)" d="M1.504,8.153H0v40.665h59.089V8.172L1.504,8.153z M38.732,10.847
			c1.406,0.444,7.243,2.325,9.561,3.904v-0.002c3.415,2.322,5.839,4.922,6.187,5.307c0,0.332,0,24.667,0,26.068
			c-2.618,0-47.244,0-49.867,0c0-1.396,0-33.879,0-35.277C7.222,10.847,37.997,10.847,38.732,10.847z"/>
		<linearGradient id="XMLID_7_" gradientUnits="userSpaceOnUse" x1="54.5732" y1="61.9717" x2="5.6943" y2="-3.4763">
			<stop  offset="0.0022" style="stop-color:#E8EDF6"/>
			<stop  offset="0.0405" style="stop-color:#F2F5FB"/>
			<stop  offset="0.0839" style="stop-color:#F8FAFD"/>
			<stop  offset="0.4128" style="stop-color:#F8FAFD"/>
			<stop  offset="0.5515" style="stop-color:#EEF1F7"/>
			<stop  offset="1" style="stop-color:#D2DCEB"/>
		</linearGradient>
		<polygon fill="url(#XMLID_7_)" points="57.08,10.052 57.08,46.866 2.009,46.866 2.009,10.108 		"/>
	</g>
	<g>
		<g>
			<path opacity="0" fill="#F1F3F7" d="M55.966,20.874c0,0.596-0.56,1.082-1.248,1.082l-26.936-0.053c-0.69,0-1.26-0.486-1.26-1.079
				l-0.002-0.665c0-0.588,0.564-1.086,1.256-1.082l26.937,0.06c0.687,0.003,1.251,0.481,1.251,1.072L55.966,20.874z"/>
			<path opacity="0.1" fill="#E9EBF1" d="M55.071,20.832c0,0.575-0.54,1.044-1.205,1.044l-25.931-0.049
				c-0.667,0-1.217-0.469-1.217-1.042l-0.001-0.616c0-0.568,0.546-1.05,1.213-1.045l25.931,0.056
				c0.664,0.002,1.209,0.465,1.209,1.036L55.071,20.832z"/>
			<path opacity="0.2" fill="#E0E4EC" d="M54.178,20.79c0,0.554-0.521,1.007-1.164,1.007l-24.925-0.046
				c-0.643-0.001-1.174-0.453-1.175-1.005l-0.001-0.568c0-0.548,0.528-1.013,1.172-1.008l24.925,0.053
				c0.642,0.002,1.166,0.448,1.166,1L54.178,20.79z"/>
			<path opacity="0.3" fill="#D8DCE7" d="M53.283,20.748c0,0.532-0.502,0.969-1.121,0.969l-23.919-0.042
				c-0.619-0.002-1.132-0.436-1.132-0.968l-0.001-0.52c0-0.528,0.509-0.977,1.129-0.971l23.92,0.048
				c0.618,0.002,1.124,0.432,1.124,0.963L53.283,20.748z"/>
			<path opacity="0.4" fill="#D0D5E3" d="M52.39,20.706c0,0.511-0.483,0.931-1.08,0.931l-22.914-0.038
				c-0.595-0.002-1.089-0.419-1.09-0.931l-0.001-0.471c0-0.508,0.491-0.939,1.088-0.934l22.914,0.045
				c0.596,0.002,1.081,0.415,1.081,0.927L52.39,20.706z"/>
			<path opacity="0.5" fill="#C7CFDF" d="M51.495,20.664c0,0.49-0.463,0.894-1.037,0.894l-21.909-0.035
				c-0.571-0.003-1.046-0.402-1.047-0.894l-0.001-0.422c0-0.489,0.472-0.903,1.045-0.897l21.91,0.042
				c0.572,0.001,1.038,0.398,1.038,0.891L51.495,20.664z"/>
			<path opacity="0.6" fill="#C0C8DA" d="M50.601,20.622c0,0.469-0.443,0.856-0.994,0.856l-20.904-0.031
				c-0.547-0.003-1.003-0.385-1.005-0.856l0-0.374c0-0.469,0.454-0.867,1.003-0.861l20.904,0.038
				c0.55,0.001,0.996,0.381,0.996,0.854V20.622z"/>
			<path opacity="0.7" fill="#B8C1D5" d="M49.707,20.58c0,0.448-0.425,0.818-0.953,0.818l-19.898-0.028
				c-0.523-0.004-0.961-0.369-0.962-0.819l0-0.325c0-0.449,0.436-0.83,0.961-0.824l19.898,0.035c0.527,0,0.953,0.364,0.953,0.818
				L49.707,20.58z"/>
			<path opacity="0.8" fill="#B1BCD2" d="M48.813,20.538c0,0.427-0.405,0.78-0.91,0.78L29.01,21.295
				c-0.5-0.005-0.918-0.352-0.92-0.782l0-0.277c0-0.429,0.417-0.794,0.919-0.787l18.893,0.03c0.504,0.001,0.911,0.348,0.911,0.782
				V20.538z"/>
			<path opacity="0.9" fill="#A9B6CD" d="M47.919,20.496c0,0.406-0.387,0.743-0.869,0.743l-17.887-0.02
				c-0.476-0.005-0.876-0.335-0.877-0.745l0-0.229c0-0.409,0.398-0.757,0.877-0.75l17.887,0.027c0.481,0,0.868,0.331,0.868,0.746
				L47.919,20.496z"/>
			<path fill="#A1AFC9" d="M47.024,20.454c0,0.385-0.367,0.705-0.826,0.705l-16.882-0.017c-0.452-0.006-0.833-0.318-0.835-0.708
				v-0.18c0-0.39,0.38-0.721,0.835-0.713l16.882,0.023c0.459,0,0.826,0.314,0.826,0.709V20.454z"/>
		</g>
	</g>
	<g>
		<g>
			<path opacity="0" fill="#F1F3F7" d="M51.071,35.931c0,0.596-0.467,1.08-1.041,1.08l-22.459-0.053
				c-0.574,0-1.049-0.486-1.049-1.077l-0.002-0.663c0-0.593,0.471-1.086,1.047-1.084l22.459,0.059
				c0.572,0.002,1.042,0.482,1.042,1.072L51.071,35.931z"/>
			<path opacity="0.1" fill="#E9EBF1" d="M50.326,35.889c0,0.575-0.451,1.042-1.006,1.042l-21.621-0.049
				c-0.554,0-1.013-0.469-1.014-1.04l-0.001-0.615c0-0.572,0.455-1.049,1.012-1.047l21.621,0.055
				c0.554,0.001,1.007,0.466,1.007,1.036L50.326,35.889z"/>
			<path opacity="0.2" fill="#E0E4EC" d="M49.58,35.846c0,0.554-0.435,1.005-0.971,1.005l-20.782-0.045
				c-0.534-0.001-0.978-0.453-0.978-1.003l-0.001-0.567c0-0.552,0.439-1.013,0.977-1.01l20.782,0.051
				c0.534,0.001,0.972,0.449,0.972,1L49.58,35.846z"/>
			<path opacity="0.3" fill="#D8DCE7" d="M48.835,35.804c0,0.533-0.419,0.968-0.936,0.968L27.955,36.73
				c-0.515-0.001-0.942-0.436-0.943-0.966l-0.001-0.519c0-0.531,0.425-0.976,0.941-0.972l19.944,0.048
				c0.516,0.001,0.937,0.433,0.937,0.964L48.835,35.804z"/>
			<path opacity="0.4" fill="#D0D5E3" d="M48.089,35.762c0,0.512-0.402,0.931-0.899,0.931l-19.106-0.038
				c-0.495-0.002-0.907-0.419-0.907-0.929l-0.001-0.471c0-0.511,0.409-0.939,0.906-0.935l19.106,0.044
				c0.496,0.001,0.901,0.416,0.901,0.928L48.089,35.762z"/>
			<path opacity="0.5" fill="#C7CFDF" d="M47.344,35.72c0,0.491-0.387,0.893-0.864,0.893l-18.269-0.035
				c-0.475-0.002-0.871-0.402-0.872-0.892l-0.001-0.423c0-0.491,0.394-0.902,0.871-0.898l18.268,0.041
				c0.478,0.001,0.866,0.399,0.866,0.892L47.344,35.72z"/>
			<path opacity="0.6" fill="#C0C8DA" d="M46.599,35.678c0,0.47-0.371,0.855-0.83,0.855l-17.43-0.031
				c-0.455-0.002-0.835-0.385-0.837-0.854l0-0.375c0-0.47,0.378-0.866,0.836-0.861l17.428,0.037c0.46,0,0.831,0.383,0.831,0.855
				L46.599,35.678z"/>
			<path opacity="0.7" fill="#B8C1D5" d="M45.853,35.635c0,0.45-0.354,0.818-0.794,0.818l-16.592-0.027
				c-0.435-0.003-0.8-0.368-0.801-0.817l0-0.327c0-0.45,0.362-0.829,0.801-0.824l16.59,0.033c0.44,0,0.796,0.366,0.796,0.819
				L45.853,35.635z"/>
			<path opacity="0.8" fill="#B1BCD2" d="M45.107,35.593c0,0.428-0.339,0.781-0.759,0.781L28.595,36.35
				c-0.415-0.003-0.765-0.351-0.766-0.78l0-0.279c0-0.429,0.348-0.792,0.766-0.786l15.752,0.03c0.422,0,0.761,0.35,0.761,0.783
				L45.107,35.593z"/>
			<path opacity="0.9" fill="#A9B6CD" d="M44.361,35.551c0,0.408-0.322,0.744-0.724,0.744l-14.915-0.02
				c-0.395-0.004-0.729-0.334-0.73-0.743l0-0.231c0-0.409,0.332-0.755,0.73-0.749l14.914,0.026c0.402,0,0.726,0.333,0.726,0.747
				V35.551z"/>
			<path fill="#A1AFC9" d="M43.616,35.509c0,0.387-0.307,0.706-0.688,0.706l-14.077-0.017c-0.375-0.004-0.693-0.317-0.695-0.706
				V35.31c0-0.389,0.316-0.719,0.695-0.712l14.075,0.022c0.384,0,0.69,0.316,0.69,0.711V35.509z"/>
		</g>
	</g>
	<g>
		<g>
			<path opacity="0" fill="#F1F3F7" d="M55.966,28.403c0,0.595-0.56,1.08-1.248,1.08l-26.936-0.05c-0.69,0-1.26-0.488-1.26-1.08
				l-0.002-0.666c0-0.589,0.564-1.086,1.256-1.081l26.937,0.061c0.687,0.002,1.251,0.48,1.251,1.073L55.966,28.403z"/>
			<path opacity="0.1" fill="#E9EBF1" d="M55.071,28.361c0,0.574-0.54,1.042-1.205,1.042l-25.931-0.046
				c-0.667,0-1.217-0.471-1.217-1.043l-0.001-0.618c0-0.568,0.546-1.049,1.213-1.044l25.931,0.057
				c0.664,0.002,1.209,0.464,1.209,1.037L55.071,28.361z"/>
			<path opacity="0.2" fill="#E0E4EC" d="M54.178,28.319c0,0.553-0.521,1.005-1.164,1.005l-24.925-0.043
				c-0.643-0.001-1.174-0.454-1.175-1.005l-0.001-0.569c0-0.548,0.528-1.013,1.172-1.007l24.925,0.053
				c0.642,0.002,1.166,0.448,1.166,1.001L54.178,28.319z"/>
			<path opacity="0.3" fill="#D8DCE7" d="M53.283,28.277c0,0.532-0.502,0.967-1.121,0.967l-23.919-0.039
				c-0.619-0.002-1.132-0.438-1.132-0.969l-0.001-0.521c0-0.528,0.509-0.976,1.129-0.97l23.92,0.049
				c0.618,0.001,1.124,0.431,1.124,0.965L53.283,28.277z"/>
			<path opacity="0.4" fill="#D0D5E3" d="M52.39,28.234c0,0.512-0.483,0.93-1.08,0.93l-22.914-0.035
				c-0.595-0.002-1.089-0.421-1.09-0.931l-0.001-0.473c0-0.508,0.491-0.939,1.088-0.933l22.914,0.045
				c0.596,0.001,1.081,0.415,1.081,0.929L52.39,28.234z"/>
			<path opacity="0.5" fill="#C7CFDF" d="M51.495,28.192c0,0.491-0.463,0.893-1.037,0.893l-21.909-0.032
				c-0.571-0.003-1.046-0.404-1.047-0.894l-0.001-0.424c0-0.488,0.472-0.902,1.045-0.896l21.91,0.041
				c0.572,0.001,1.038,0.398,1.038,0.893L51.495,28.192z"/>
			<path opacity="0.6" fill="#C0C8DA" d="M50.601,28.15c0,0.47-0.443,0.855-0.994,0.855l-20.904-0.028
				c-0.547-0.003-1.003-0.387-1.005-0.857l0-0.376c0-0.467,0.454-0.865,1.003-0.859l20.904,0.037
				c0.55,0.001,0.996,0.381,0.996,0.857V28.15z"/>
			<path opacity="0.7" fill="#B8C1D5" d="M49.707,28.108c0,0.449-0.425,0.818-0.953,0.818l-19.898-0.025
				c-0.523-0.004-0.961-0.37-0.962-0.819l0-0.328c0-0.447,0.436-0.829,0.961-0.822l19.898,0.033
				c0.527,0.001,0.953,0.365,0.953,0.821L49.707,28.108z"/>
			<path opacity="0.8" fill="#B1BCD2" d="M48.813,28.066c0,0.428-0.405,0.78-0.91,0.78L29.01,28.825
				c-0.5-0.005-0.918-0.354-0.92-0.783l0-0.279c0-0.427,0.417-0.792,0.919-0.785l18.893,0.029c0.504,0,0.911,0.348,0.911,0.785
				V28.066z"/>
			<path opacity="0.9" fill="#A9B6CD" d="M47.919,28.023c0,0.408-0.387,0.743-0.869,0.743l-17.887-0.017
				c-0.476-0.005-0.876-0.336-0.877-0.745l0-0.231c0-0.407,0.398-0.756,0.877-0.748L47.05,27.05c0.481,0,0.868,0.332,0.868,0.749
				L47.919,28.023z"/>
			<path fill="#A1AFC9" d="M47.024,27.981c0,0.387-0.367,0.705-0.826,0.705l-16.882-0.014c-0.452-0.006-0.833-0.319-0.835-0.708
				v-0.183c0-0.387,0.38-0.719,0.835-0.711l16.882,0.021c0.459,0,0.826,0.315,0.826,0.713V27.981z"/>
		</g>
	</g>
	<g>
		<g>
			<linearGradient id="XMLID_8_" gradientUnits="userSpaceOnUse" x1="8.8447" y1="22.4365" x2="21.8096" y2="22.4365">
				<stop  offset="0" style="stop-color:#8AA5C1"/>
				<stop  offset="0.2156" style="stop-color:#8DA7C3"/>
				<stop  offset="0.3377" style="stop-color:#93ADCB"/>
				<stop  offset="0.436" style="stop-color:#9EB8D9"/>
				<stop  offset="0.4775" style="stop-color:#A3BFE4"/>
				<stop  offset="0.5267" style="stop-color:#91A9D2"/>
				<stop  offset="0.5979" style="stop-color:#7B92C1"/>
				<stop  offset="0.6749" style="stop-color:#6C82B6"/>
				<stop  offset="0.7595" style="stop-color:#6178AE"/>
				<stop  offset="0.8575" style="stop-color:#5B72AA"/>
				<stop  offset="1" style="stop-color:#5971A9"/>
			</linearGradient>
			<path fill="url(#XMLID_8_)" d="M21.398,35.611l-3.108-8.382l3.23,10.675c1.289,2.25-2.251-19.009-2.251-19.009
				c0.509,0.893,1.343,0.893,1.853,0c0.514-0.891,0.514-2.335,0-3.227l-5.945-10.35l-5.642,9.82c-0.513,0.894-0.513,2.335,0,3.227
				c0.511,0.892,1.341,0.892,1.852,0c0,0-3.451,21.327-2.267,19.271c0,5.17,3.426-12.693,3.426-11.605
				c-0.655,1.14-3.317,9.627-3.317,9.627c-0.257,0.446-0.384,1.029-0.384,1.613c0,0.582,0.127,1.166,0.384,1.611
				c0.513,0.892,1.341,0.892,1.855,0l4.116-2.438l4.4,2.488c0.525,0.864,1.355,0.82,1.852-0.097
				C21.948,37.916,21.926,36.473,21.398,35.611z"/>
		</g>
		<g>
			<g>
				<path fill="#FFFFFF" d="M24.957,10.691c0-2.637-0.95-4.91-2.848-6.818c-1.901-1.908-4.195-2.859-6.886-2.859
					s-4.984,0.951-6.888,2.859c-1.897,1.908-2.848,4.182-2.848,6.818c0,2.674,0.958,4.955,2.876,6.847
					c1.918,1.888,4.205,2.83,6.859,2.83c2.65,0,4.939-0.942,6.857-2.83C23.997,15.646,24.957,13.365,24.957,10.691z"/>
			</g>
			<path fill="#0B6C9F" d="M4.661,10.604c0-2.896,1.039-5.38,3.12-7.471C9.862,1.041,12.38,0,15.327,0
				c2.948,0,5.461,1.041,7.545,3.133c2.079,2.091,3.121,4.575,3.121,7.471c0,2.928-1.055,5.426-3.158,7.5
				c-2.096,2.066-4.6,3.104-7.508,3.104c-2.909,0-5.412-1.037-7.514-3.104C5.712,16.029,4.661,13.531,4.661,10.604z"/>
			
				<linearGradient id="XMLID_9_" gradientUnits="userSpaceOnUse" x1="27.9502" y1="10.6221" x2="44.8818" y2="10.6221" gradientTransform="matrix(1 0 0 1 -20.998 0)">
				<stop  offset="0" style="stop-color:#E6EEF4"/>
				<stop  offset="0.1192" style="stop-color:#DFE8F1"/>
				<stop  offset="0.2965" style="stop-color:#CBD8E8"/>
				<stop  offset="0.5098" style="stop-color:#ABC1DA"/>
				<stop  offset="0.7512" style="stop-color:#82A4C9"/>
				<stop  offset="1" style="stop-color:#5088B7"/>
			</linearGradient>
			<path fill="url(#XMLID_9_)" d="M6.952,10.623c0-2.294,0.827-4.271,2.479-5.93c1.654-1.659,3.646-2.486,5.986-2.486
				s4.336,0.827,5.99,2.486c1.65,1.659,2.477,3.636,2.477,5.93c0,2.323-0.834,4.309-2.502,5.951
				c-1.668,1.641-3.655,2.463-5.965,2.463c-2.305,0-4.295-0.822-5.963-2.463C7.788,14.932,6.952,12.946,6.952,10.623z"/>
			
				<linearGradient id="XMLID_10_" gradientUnits="userSpaceOnUse" x1="29.0103" y1="9.8525" x2="40.4404" y2="9.8525" gradientTransform="matrix(1 0 0 1 -20.998 0)">
				<stop  offset="0.0022" style="stop-color:#E8EDF6"/>
				<stop  offset="0.0405" style="stop-color:#F2F5FB"/>
				<stop  offset="0.0839" style="stop-color:#F8FAFD"/>
				<stop  offset="0.4128" style="stop-color:#F8FAFD"/>
				<stop  offset="0.5515" style="stop-color:#EEF1F7"/>
				<stop  offset="1" style="stop-color:#D2DCEB"/>
			</linearGradient>
			<path fill="url(#XMLID_10_)" d="M19.442,4.604c0,0-6.036-4.465-10.177,1.852c-3.515,5.365,1.479,10.178,1.479,10.178
				S8.341,12.1,11.115,7.658C13.749,3.445,15.928,4.788,19.442,4.604z"/>
			<path opacity="0.55" fill="#3B4299" d="M11.532,16.668c0,0,6.037,4.467,10.178-1.85c3.518-5.367-1.48-10.18-1.48-10.18
				s1.959,5.582-0.555,9.252C17.269,17.407,15.048,16.484,11.532,16.668z"/>
		</g>
	</g>
</g>
</svg>
