<?xml version="1.0" encoding="utf-8"?>
<!-- Generator: Adobe Illustrator 12.0.1, SVG Export Plug-In . SVG Version: 6.00 Build 51448)  -->
<!DOCTYPE svg PUBLIC "-//W3C//DTD SVG 1.1//EN" "http://www.w3.org/Graphics/SVG/1.1/DTD/svg11.dtd" [
	<!ENTITY ns_svg "http://www.w3.org/2000/svg">
	<!ENTITY ns_xlink "http://www.w3.org/1999/xlink">
]>
<svg  version="1.1" id="Layer_1" xmlns="&ns_svg;" xmlns:xlink="&ns_xlink;" width="58.306" height="51.105"
	 viewBox="0 0 58.306 51.105" overflow="visible" enable-background="new 0 0 58.306 51.105" xml:space="preserve">
<g>
	<linearGradient id="XMLID_6_" gradientUnits="userSpaceOnUse" x1="35.5176" y1="1.2178" x2="35.5176" y2="42.9736">
		<stop  offset="0" style="stop-color:#886961"/>
		<stop  offset="1" style="stop-color:#3A4EA1"/>
	</linearGradient>
	<path fill="url(#XMLID_6_)" d="M28.368,8.785V4.03c0-0.882,0.713-1.598,1.6-1.598h11.095c0.885,0,1.6,0.716,1.6,1.598v4.755h2.661
		V1.602c0-0.885-0.72-1.602-1.602-1.602H27.305c-0.88,0-1.593,0.717-1.593,1.602v7.184H28.368z"/>
	<linearGradient id="XMLID_7_" gradientUnits="userSpaceOnUse" x1="35.5176" y1="8.584" x2="35.5176" y2="42.2037">
		<stop  offset="0.132" style="stop-color:#FFFFFF"/>
		<stop  offset="0.6417" style="stop-color:#DADAE0"/>
		<stop  offset="1" style="stop-color:#C9C8D2"/>
	</linearGradient>
	<path fill="url(#XMLID_7_)" d="M54.079,8.785H16.95c-1.997,0-3.614,1.619-3.614,3.616v26.268c0,1.997,1.617,3.618,3.614,3.618
		h37.129c1.999,0,3.619-1.621,3.619-3.618V12.401C57.698,10.404,56.078,8.785,54.079,8.785z"/>
	<linearGradient id="XMLID_8_" gradientUnits="userSpaceOnUse" x1="35.5137" y1="1.2134" x2="35.5137" y2="42.979">
		<stop  offset="0" style="stop-color:#886961"/>
		<stop  offset="1" style="stop-color:#3A4EA1"/>
	</linearGradient>
	<path fill="url(#XMLID_8_)" d="M16.95,8.172c-2.329,0-4.229,1.897-4.229,4.229v26.268c0,2.337,1.9,4.229,4.229,4.229h37.129
		c2.329,0,4.227-1.893,4.227-4.229V12.401c0-2.332-1.897-4.229-4.227-4.229H16.95z M13.948,38.669V12.401
		c0-1.657,1.345-3.005,3.002-3.005h37.129c1.658,0,3.007,1.348,3.007,3.005v26.268c0,1.657-1.349,3.005-3.007,3.005H16.95
		C15.293,41.674,13.948,40.326,13.948,38.669z"/>
	<path opacity="0.4" fill="#010101" d="M28.365,4.03c0-0.882,0.716-1.598,1.603-1.598h11.095c0.257,0,0.489,0.072,0.705,0.181
		c-0.203-0.64-0.788-1.11-1.501-1.11H29.17c-0.88,0-1.602,0.718-1.602,1.6v5.55h0.797V4.03z"/>
	<path opacity="0.5" fill="none" stroke="#FFFFFF" stroke-width="1.2228" stroke-linecap="round" stroke-linejoin="round" d="
		M16.418,39.604c0.577,0.601,0.963,0.559,1.837,0.559h34.567c1.747,0,2.355-0.66,2.355-2.489V12.031"/>
	<path opacity="0.2" fill="none" stroke="#010101" stroke-width="1.2228" stroke-linecap="round" stroke-linejoin="round" d="
		M54.453,11.336c-0.571-0.598-0.96-0.565-1.841-0.565H18.049c-1.745,0-2.354,0.668-2.354,2.497v25.638"/>
	<linearGradient id="XMLID_9_" gradientUnits="userSpaceOnUse" x1="32.4805" y1="50.1982" x2="32.4805" y2="35.5391">
		<stop  offset="0" style="stop-color:#FFFFFF"/>
		<stop  offset="1" style="stop-color:#CAD7EA"/>
	</linearGradient>
	<rect x="16.208" y="36.632" fill="url(#XMLID_9_)" width="32.545" height="13.886"/>
	<rect x="0.5" y="37.143" fill="#D8DDE5" stroke="#526785" width="15.578" height="13.406"/>
	<linearGradient id="XMLID_10_" gradientUnits="userSpaceOnUse" x1="24.8784" y1="30.7979" x2="24.8784" y2="37.0195">
		<stop  offset="0" style="stop-color:#D8E1E4"/>
		<stop  offset="0.0422" style="stop-color:#D2DCE2"/>
		<stop  offset="1" style="stop-color:#5088B7"/>
	</linearGradient>
	<rect x="0.5" y="30.798" fill="url(#XMLID_10_)" stroke="#526785" width="48.758" height="6.222"/>
	<line fill="#D5D0C8" stroke="#526785" x1="49.223" y1="43.865" x2="0.5" y2="43.865"/>
	<line fill="#D5D0C8" stroke="#526785" x1="49.815" y1="50.549" x2="0.5" y2="50.549"/>
	<line fill="#D5D0C8" stroke="#526785" x1="49.257" y1="51.105" x2="49.257" y2="30.453"/>
	<path opacity="0.64" fill="#FFFFFF" d="M19.83,31.822H1.396v2.961c0,0,2.847-4.385,1.54-2.338
		C3.05,32.521,3.921,31.822,19.83,31.822z"/>
</g>
</svg>
