<?xml version="1.0" encoding="utf-8"?>
<!-- Generator: Adobe Illustrator 12.0.1, SVG Export Plug-In . SVG Version: 6.00 Build 51448)  -->
<!DOCTYPE svg PUBLIC "-//W3C//DTD SVG 1.1//EN" "http://www.w3.org/Graphics/SVG/1.1/DTD/svg11.dtd" [
	<!ENTITY ns_svg "http://www.w3.org/2000/svg">
	<!ENTITY ns_xlink "http://www.w3.org/1999/xlink">
]>
<svg  version="1.1" id="Layer_1" xmlns="&ns_svg;" xmlns:xlink="&ns_xlink;" width="58.854" height="58.787"
	 viewBox="0 0 58.854 58.787" overflow="visible" enable-background="new 0 0 58.854 58.787" xml:space="preserve">
<g>
	<g>
		<linearGradient id="XMLID_17_" gradientUnits="userSpaceOnUse" x1="18.0142" y1="3.2422" x2="18.0142" y2="12.7315">
			<stop  offset="0" style="stop-color:#7FB89D"/>
			<stop  offset="1" style="stop-color:#689989"/>
		</linearGradient>
		<rect fill="url(#XMLID_17_)" width="36.028" height="15.079"/>
		<linearGradient id="XMLID_18_" gradientUnits="userSpaceOnUse" x1="18.0142" y1="1.6802" x2="18.0142" y2="13.9007">
			<stop  offset="0" style="stop-color:#E6E89F"/>
			<stop  offset="1" style="stop-color:#B0C895"/>
		</linearGradient>
		<path fill="url(#XMLID_18_)" d="M34.589,13.87c0-2.814,0-9.844,0-12.661c-2.339,0-30.81,0-33.148,0c0,2.817,0,9.847,0,12.661
			C3.779,13.87,32.25,13.87,34.589,13.87z"/>
		<path opacity="0.64" fill="#FFFFFF" d="M34.869,1.209H1.44v12.46c0,0,2.988-18.44,1.62-9.831
			C3.178,4.159,18.163,1.209,34.869,1.209z"/>
	</g>
	<linearGradient id="XMLID_19_" gradientUnits="userSpaceOnUse" x1="18.0142" y1="30.5288" x2="18.0142" y2="21.0395">
		<stop  offset="0" style="stop-color:#A67F2D"/>
		<stop  offset="1" style="stop-color:#BA972F"/>
	</linearGradient>
	<rect y="18.691" fill="url(#XMLID_19_)" width="36.028" height="15.08"/>
	<linearGradient id="XMLID_20_" gradientUnits="userSpaceOnUse" x1="18.0142" y1="20.3716" x2="18.0142" y2="32.593">
		<stop  offset="0" style="stop-color:#FDF5DA"/>
		<stop  offset="0.8764" style="stop-color:#FADB87"/>
	</linearGradient>
	<path fill="url(#XMLID_20_)" d="M34.589,32.562c0-2.814,0-9.843,0-12.662c-2.339,0-30.81,0-33.148,0c0,2.818,0,9.847,0,12.662
		C3.779,32.562,32.25,32.562,34.589,32.562z"/>
	<path opacity="0.64" fill="#FFFFFF" d="M34.869,19.9H1.44v12.46c0,0,2.988-18.44,1.62-9.832C3.178,22.851,18.163,19.9,34.869,19.9z
		"/>
	<g>
		<linearGradient id="XMLID_21_" gradientUnits="userSpaceOnUse" x1="18.0142" y1="40.6245" x2="18.0142" y2="50.1144">
			<stop  offset="0" style="stop-color:#7693C1"/>
			<stop  offset="1" style="stop-color:#5F7CAF"/>
		</linearGradient>
		<rect y="37.382" fill="url(#XMLID_21_)" width="36.028" height="15.08"/>
		<linearGradient id="XMLID_22_" gradientUnits="userSpaceOnUse" x1="18.0151" y1="50.7827" x2="18.0151" y2="38.5612">
			<stop  offset="0" style="stop-color:#B1CDD8"/>
			<stop  offset="1" style="stop-color:#E3EBF1"/>
		</linearGradient>
		<path fill="url(#XMLID_22_)" d="M34.589,51.253c0-2.814,0-9.845,0-12.662c-2.339,0-30.81,0-33.148,0c0,2.817,0,9.848,0,12.662
			C3.779,51.253,32.25,51.253,34.589,51.253z"/>
		<path opacity="0.64" fill="#FFFFFF" d="M34.869,38.591H1.44v12.46c0,0,2.988-18.44,1.62-9.831
			C3.178,41.541,18.163,38.591,34.869,38.591z"/>
	</g>
	<g>
		
			<radialGradient id="XMLID_23_" cx="37.3086" cy="130.231" r="25.2014" gradientTransform="matrix(1 0 0 0.9086 0 -81.1978)" gradientUnits="userSpaceOnUse">
			<stop  offset="0" style="stop-color:#E8DBC6"/>
			<stop  offset="0.7478" style="stop-color:#BA972F"/>
			<stop  offset="1" style="stop-color:#A67F2D"/>
		</radialGradient>
		<path fill="url(#XMLID_23_)" d="M45.026,41.802c2.872,0.978,3.079,0.231,5.663,5.252c2.582,5.02,6.316-2.542,6.316-2.542
			s4.159-6.978,0-14.019c-4.164-7.041-5.528-3.52-5.528-3.52c-3.73,7.106-6.457,6.389-6.457,6.389L45.026,41.802z"/>
		
			<radialGradient id="XMLID_24_" cx="43.585" cy="85.3062" r="15.1117" gradientTransform="matrix(1 0 0 0.9426 0 -42.8734)" gradientUnits="userSpaceOnUse">
			<stop  offset="0.2832" style="stop-color:#FEFDF0"/>
			<stop  offset="0.4585" style="stop-color:#FDF0CF"/>
			<stop  offset="0.8479" style="stop-color:#FBD782"/>
			<stop  offset="1" style="stop-color:#FACE60"/>
			<stop  offset="1" style="stop-color:#FAEFB4"/>
		</radialGradient>
		<path fill="url(#XMLID_24_)" stroke="#897C6A" stroke-width="0.25" d="M44.711,41.826c2.752,0.974,2.953,0.231,5.431,5.228
			c2.479,4.995,6.056-2.531,6.056-2.531s3.994-6.941,0-13.948c-3.992-7.006-5.298-3.503-5.298-3.503
			c-3.58,7.071-6.195,6.358-6.195,6.358L44.711,41.826z"/>
		
			<radialGradient id="XMLID_25_" cx="693.2705" cy="-1754.8018" r="25.2012" gradientTransform="matrix(-1 0 0 -0.9086 730.9648 -1556.6758)" gradientUnits="userSpaceOnUse">
			<stop  offset="0" style="stop-color:#E8DBC6"/>
			<stop  offset="0.7478" style="stop-color:#BA972F"/>
			<stop  offset="1" style="stop-color:#A67F2D"/>
		</radialGradient>
		<path fill="url(#XMLID_25_)" d="M29.976,33.066c-2.872-0.979-3.079-0.231-5.664-5.252c-2.581-5.02-6.314,2.543-6.314,2.543
			s-4.16,6.977,0,14.018c4.164,7.041,5.527,3.52,5.527,3.52c3.729-7.105,6.458-6.389,6.458-6.389L29.976,33.066z"/>
		
			<radialGradient id="XMLID_26_" cx="700.9951" cy="-1707.2119" r="14.9368" gradientTransform="matrix(-1 0 0 -0.9426 730.9648 -1573.103)" gradientUnits="userSpaceOnUse">
			<stop  offset="0.2832" style="stop-color:#FEFDF0"/>
			<stop  offset="0.4585" style="stop-color:#FDF0CF"/>
			<stop  offset="0.8479" style="stop-color:#FBD782"/>
			<stop  offset="1" style="stop-color:#FACE60"/>
			<stop  offset="1" style="stop-color:#FAEFB4"/>
		</radialGradient>
		<path fill="url(#XMLID_26_)" stroke="#897C6A" stroke-width="0.25" d="M30.292,33.133c-2.754-0.975-2.954-0.231-5.43-5.227
			c-2.48-4.997-6.059,2.53-6.059,2.53s-3.992,6.941,0,13.949c3.994,7.006,5.299,3.502,5.299,3.502
			c3.58-7.072,6.195-6.357,6.195-6.357L30.292,33.133z"/>
		
			<radialGradient id="XMLID_27_" cx="-630.4146" cy="-1238.5625" r="25.2006" gradientTransform="matrix(0 -1 0.9086 0 1162.5547 -592.7876)" gradientUnits="userSpaceOnUse">
			<stop  offset="0" style="stop-color:#E8DBC6"/>
			<stop  offset="0.7478" style="stop-color:#BA972F"/>
			<stop  offset="1" style="stop-color:#A67F2D"/>
		</radialGradient>
		<path fill="url(#XMLID_27_)" d="M41.869,29.909c0.979-2.872,0.232-3.08,5.253-5.662c5.018-2.583-2.542-6.315-2.542-6.315
			s-6.979-4.162-14.02,0s-3.521,5.526-3.521,5.526c7.106,3.73,6.391,6.458,6.391,6.458L41.869,29.909z"/>
		
			<radialGradient id="XMLID_28_" cx="-624.1396" cy="-1235.5127" r="15.1116" gradientTransform="matrix(0 -1 0.9275 0 1183.5413 -592.7876)" gradientUnits="userSpaceOnUse">
			<stop  offset="0.2832" style="stop-color:#FEFDF0"/>
			<stop  offset="0.4585" style="stop-color:#FDF0CF"/>
			<stop  offset="0.8479" style="stop-color:#FBD782"/>
			<stop  offset="1" style="stop-color:#FACE60"/>
			<stop  offset="1" style="stop-color:#FAEFB4"/>
		</radialGradient>
		<path fill="url(#XMLID_28_)" stroke="#897C6A" stroke-width="0.25" d="M41.822,30.224c0.957-2.752,0.229-2.952,5.144-5.429
			c4.916-2.479-2.49-6.057-2.49-6.057s-6.83-3.994-13.726,0c-6.893,3.993-3.444,5.299-3.444,5.299
			c6.956,3.579,6.256,6.195,6.256,6.195L41.822,30.224z"/>
		
			<radialGradient id="XMLID_29_" cx="1210.9941" cy="-382.3408" r="25.2009" gradientTransform="matrix(0 1 -0.9086 0 -309.5903 -1173.7524)" gradientUnits="userSpaceOnUse">
			<stop  offset="0" style="stop-color:#E8DBC6"/>
			<stop  offset="0.7478" style="stop-color:#BA972F"/>
			<stop  offset="1" style="stop-color:#A67F2D"/>
		</radialGradient>
		<path fill="url(#XMLID_29_)" d="M33.133,44.96c-0.978,2.871-0.232,3.079-5.254,5.662c-5.019,2.582,2.544,6.314,2.544,6.314
			s6.977,4.162,14.018,0c7.042-4.163,3.522-5.525,3.522-5.525c-7.107-3.73-6.392-6.458-6.392-6.458L33.133,44.96z"/>
		
			<radialGradient id="XMLID_30_" cx="1217.2705" cy="-383.7549" r="15.1109" gradientTransform="matrix(0 1 -0.9237 0 -316.9397 -1173.7524)" gradientUnits="userSpaceOnUse">
			<stop  offset="0.2832" style="stop-color:#FEFDF0"/>
			<stop  offset="0.4585" style="stop-color:#FDF0CF"/>
			<stop  offset="0.8479" style="stop-color:#FBD782"/>
			<stop  offset="1" style="stop-color:#FACE60"/>
			<stop  offset="1" style="stop-color:#FAEFB4"/>
		</radialGradient>
		<path fill="url(#XMLID_30_)" stroke="#897C6A" stroke-width="0.25" d="M33.332,44.644c-0.955,2.752-0.227,2.951-5.121,5.43
			c-4.896,2.479,2.479,6.057,2.479,6.057s6.801,3.994,13.669,0c6.867-3.992,3.432-5.297,3.432-5.297
			c-6.929-3.581-6.228-6.196-6.228-6.196L33.332,44.644z"/>
		<g>
			<linearGradient id="XMLID_31_" gradientUnits="userSpaceOnUse" x1="37.502" y1="29.8735" x2="37.502" y2="44.9946">
				<stop  offset="0" style="stop-color:#A67F2D"/>
				<stop  offset="1" style="stop-color:#BA972F"/>
				<stop  offset="1" style="stop-color:#B089BF"/>
			</linearGradient>
			<rect x="29.94" y="29.874" fill="url(#XMLID_31_)" width="15.122" height="15.121"/>
			<linearGradient id="XMLID_32_" gradientUnits="userSpaceOnUse" x1="37.501" y1="31.1489" x2="37.501" y2="43.7183">
				<stop  offset="0" style="stop-color:#FDF5DA"/>
				<stop  offset="0.8764" style="stop-color:#FADB87"/>
			</linearGradient>
			<rect x="31.216" y="31.149" fill="url(#XMLID_32_)" width="12.57" height="12.569"/>
		</g>
	</g>
</g>
</svg>
