<?xml version="1.0" encoding="utf-8"?>
<!-- Generator: Adobe Illustrator 12.0.1, SVG Export Plug-In . SVG Version: 6.00 Build 51448)  -->
<!DOCTYPE svg PUBLIC "-//W3C//DTD SVG 1.1//EN" "http://www.w3.org/Graphics/SVG/1.1/DTD/svg11.dtd" [
	<!ENTITY ns_svg "http://www.w3.org/2000/svg">
	<!ENTITY ns_xlink "http://www.w3.org/1999/xlink">
]>
<svg  version="1.1" id="Layer_1" xmlns="&ns_svg;" xmlns:xlink="&ns_xlink;" width="55.365" height="58.291"
	 viewBox="0 0 55.365 58.291" overflow="visible" enable-background="new 0 0 55.365 58.291" xml:space="preserve">
<g>
	<g>
		<path fill="#5978A8" d="M29.364,53.509V37.489c8.047,0,15.671,0,17.052,0c0,2.72,0,15.057,0,15.057c0,0.927,0.752,1.68,1.681,1.68
			c0.928,0,1.68-0.753,1.68-1.68V35.808c0-0.928-0.752-1.68-1.68-1.68H29.364v-9.917c0-0.928-0.753-1.68-1.681-1.68
			c-0.929,0-1.68,0.752-1.68,1.68v9.917H7.132c-0.929,0-1.681,0.752-1.681,1.68v17.14c0,0.928,0.752,1.681,1.681,1.681
			c0.928,0,1.68-0.753,1.68-1.681c0,0,0-12.726,0-15.459c1.388,0,9.093,0,17.192,0v16.021c0,0.928,0.751,1.68,1.68,1.68
			C28.611,55.189,29.364,54.437,29.364,53.509z"/>
		<path fill="#607DAC" d="M29.237,53.509V37.362c8.21,0,16.026,0,17.306,0c0,2.521,0,15.184,0,15.184
			c0,0.856,0.695,1.553,1.554,1.553c0.857,0,1.553-0.696,1.553-1.553V35.808c0-0.857-0.695-1.553-1.553-1.553H29.237V24.212
			c0-0.857-0.696-1.553-1.554-1.553c-0.858,0-1.552,0.695-1.552,1.553v10.043h-19c-0.858,0-1.553,0.695-1.553,1.553v17.14
			c0,0.857,0.695,1.554,1.553,1.554c0.857,0,1.552-0.696,1.552-1.554c0,0,0-13.052,0-15.586c1.286,0,9.185,0,17.447,0v16.147
			c0,0.857,0.694,1.553,1.552,1.553C28.541,55.062,29.237,54.367,29.237,53.509z"/>
		<path fill="#6782AF" d="M29.109,53.509V37.234c8.374,0,16.382,0,17.562,0c0,2.324,0,15.312,0,15.312
			c0,0.786,0.638,1.425,1.426,1.425c0.787,0,1.425-0.639,1.425-1.425V35.808c0-0.787-0.638-1.425-1.425-1.425H29.109V24.212
			c0-0.787-0.639-1.426-1.426-1.426c-0.788,0-1.425,0.639-1.425,1.426v10.171H7.132c-0.788,0-1.426,0.638-1.426,1.425v17.14
			c0,0.787,0.638,1.426,1.426,1.426c0.787,0,1.425-0.639,1.425-1.426c0,0,0-13.379,0-15.714c1.185,0,9.275,0,17.701,0v16.275
			c0,0.787,0.637,1.425,1.425,1.425C28.471,54.934,29.109,54.296,29.109,53.509z"/>
		<path fill="#6E87B2" d="M28.982,53.509V37.107c8.537,0,16.737,0,17.815,0c0,2.126,0,15.438,0,15.438
			c0,0.716,0.581,1.298,1.299,1.298c0.717,0,1.298-0.582,1.298-1.298V35.808c0-0.717-0.581-1.298-1.298-1.298H28.982V24.212
			c0-0.717-0.582-1.298-1.299-1.298c-0.718,0-1.298,0.582-1.298,1.298V34.51H7.132c-0.718,0-1.299,0.581-1.299,1.298v17.14
			c0,0.717,0.581,1.299,1.299,1.299c0.717,0,1.298-0.582,1.298-1.299c0,0,0-13.705,0-15.841c1.083,0,9.367,0,17.956,0v16.402
			c0,0.717,0.58,1.298,1.298,1.298C28.4,54.807,28.982,54.226,28.982,53.509z"/>
		<path fill="#758DB6" d="M28.855,53.509V36.98c8.7,0,17.093,0,18.069,0c0,1.928,0,15.565,0,15.565c0,0.646,0.524,1.171,1.172,1.171
			c0.646,0,1.171-0.525,1.171-1.171V35.808c0-0.646-0.524-1.171-1.171-1.171H28.855V24.212c0-0.646-0.525-1.171-1.172-1.171
			c-0.647,0-1.17,0.524-1.17,1.171v10.425H7.132c-0.647,0-1.171,0.524-1.171,1.171v17.14c0,0.646,0.524,1.172,1.171,1.172
			c0.646,0,1.171-0.525,1.171-1.172c0,0,0-14.031,0-15.968c0.981,0,9.458,0,18.21,0v16.529c0,0.646,0.523,1.171,1.17,1.171
			C28.33,54.68,28.855,54.156,28.855,53.509z"/>
		<path fill="#7C92B9" d="M28.728,53.509V36.852c8.864,0,17.448,0,18.325,0c0,1.73,0,15.693,0,15.693
			c0,0.575,0.467,1.044,1.044,1.044c0.576,0,1.043-0.469,1.043-1.044V35.808c0-0.576-0.467-1.043-1.043-1.043H28.728V24.212
			c0-0.576-0.468-1.044-1.044-1.044c-0.577,0-1.043,0.468-1.043,1.044v10.553H7.132c-0.577,0-1.044,0.467-1.044,1.043v17.14
			c0,0.576,0.467,1.044,1.044,1.044c0.576,0,1.043-0.468,1.043-1.044c0,0,0-14.358,0-16.096c0.88,0,9.55,0,18.465,0v16.657
			c0,0.576,0.466,1.043,1.043,1.043C28.26,54.552,28.728,54.085,28.728,53.509z"/>
		<path fill="#8499BE" d="M28.601,53.509V36.725c9.028,0,17.804,0,18.579,0c0,1.531,0,15.82,0,15.82c0,0.505,0.41,0.916,0.917,0.916
			c0.506,0,0.916-0.411,0.916-0.916V35.808c0-0.506-0.41-0.916-0.916-0.916H28.601v-10.68c0-0.506-0.411-0.917-0.917-0.917
			c-0.507,0-0.916,0.411-0.916,0.917v10.68H7.132c-0.507,0-0.917,0.41-0.917,0.916v17.14c0,0.506,0.41,0.917,0.917,0.917
			c0.506,0,0.917-0.411,0.917-0.917c0,0,0-14.685,0-16.223c0.778,0,9.641,0,18.719,0v16.784c0,0.506,0.409,0.916,0.916,0.916
			C28.189,54.425,28.601,54.015,28.601,53.509z"/>
		<path fill="#8B9FC2" d="M28.473,53.509V36.597c9.192,0,18.159,0,18.835,0c0,1.334,0,15.948,0,15.948
			c0,0.435,0.353,0.789,0.789,0.789c0.436,0,0.788-0.354,0.788-0.789V35.808c0-0.436-0.353-0.788-0.788-0.788H28.473V24.212
			c0-0.436-0.354-0.79-0.789-0.79c-0.437,0-0.789,0.354-0.789,0.79V35.02H7.132c-0.437,0-0.79,0.353-0.79,0.788v17.14
			c0,0.436,0.353,0.789,0.79,0.789c0.436,0,0.789-0.354,0.789-0.789c0,0,0-15.012,0-16.351c0.677,0,9.733,0,18.974,0v16.912
			c0,0.436,0.352,0.788,0.789,0.788C28.119,54.297,28.473,53.945,28.473,53.509z"/>
		<path fill="#92A6C6" d="M28.346,53.509V36.47c9.355,0,18.515,0,19.089,0c0,1.136,0,16.075,0,16.075
			c0,0.364,0.296,0.662,0.662,0.662c0.365,0,0.661-0.298,0.661-0.662V35.808c0-0.365-0.296-0.661-0.661-0.661H28.346V24.212
			c0-0.365-0.297-0.662-0.662-0.662c-0.366,0-0.661,0.297-0.661,0.662v10.935H7.132c-0.366,0-0.662,0.296-0.662,0.661v17.14
			c0,0.365,0.296,0.662,0.662,0.662c0.365,0,0.662-0.297,0.662-0.662c0,0,0-15.338,0-16.478c0.575,0,9.824,0,19.229,0v17.039
			c0,0.365,0.295,0.661,0.661,0.661C28.049,54.17,28.346,53.875,28.346,53.509z"/>
		<path fill="#9AABC9" d="M28.219,53.509V36.343c9.519,0,18.87,0,19.343,0c0,0.938,0,16.202,0,16.202
			c0,0.294,0.239,0.535,0.535,0.535c0.295,0,0.534-0.241,0.534-0.535V35.808c0-0.295-0.239-0.534-0.534-0.534H28.219V24.212
			c0-0.295-0.24-0.535-0.535-0.535c-0.296,0-0.534,0.24-0.534,0.535v11.062H7.132c-0.296,0-0.535,0.239-0.535,0.534v17.14
			c0,0.295,0.239,0.535,0.535,0.535c0.295,0,0.535-0.24,0.535-0.535c0,0,0-15.664,0-16.604c0.474,0,9.916,0,19.483,0v17.166
			c0,0.295,0.238,0.534,0.534,0.534C27.979,54.043,28.219,53.804,28.219,53.509z"/>
		<path fill="#A1B2CE" d="M28.091,53.509V36.215c9.683,0,19.226,0,19.599,0c0,0.74,0,16.33,0,16.33c0,0.224,0.182,0.407,0.407,0.407
			c0.225,0,0.406-0.184,0.406-0.407V35.808c0-0.225-0.182-0.406-0.406-0.406H28.091v-11.19c0-0.225-0.183-0.408-0.407-0.408
			c-0.226,0-0.407,0.183-0.407,0.408v11.19H7.132c-0.226,0-0.408,0.182-0.408,0.406v17.14c0,0.225,0.182,0.407,0.408,0.407
			c0.225,0,0.408-0.183,0.408-0.407c0,0,0-15.991,0-16.732c0.372,0,10.007,0,19.737,0v17.294c0,0.225,0.181,0.406,0.407,0.406
			C27.908,53.916,28.091,53.734,28.091,53.509z"/>
		<path fill="#A9B9D2" d="M27.964,53.509V36.088c9.846,0,19.581,0,19.853,0c0,0.542,0,16.457,0,16.457c0,0.153,0.125,0.28,0.28,0.28
			c0.154,0,0.279-0.127,0.279-0.28V35.808c0-0.154-0.125-0.279-0.279-0.279H27.964V24.212c0-0.154-0.126-0.28-0.28-0.28
			c-0.155,0-0.279,0.126-0.279,0.28v11.317H7.132c-0.155,0-0.28,0.125-0.28,0.279v17.14c0,0.154,0.125,0.28,0.28,0.28
			c0.154,0,0.28-0.126,0.28-0.28c0,0,0-16.317,0-16.859c0.271,0,10.099,0,19.992,0v17.421c0,0.154,0.124,0.279,0.279,0.279
			C27.838,53.789,27.964,53.664,27.964,53.509z"/>
	</g>
	<g>
		<path opacity="0" fill="#4379BD" d="M27.373,29.738c-0.615,0-1.115,3.961-1.115,6.142c0,3.655,0.182,3.949,1.115,3.949
			c0.896,0,1.115-0.294,1.115-3.949C28.488,33.699,27.988,29.738,27.373,29.738z"/>
		<path opacity="0.0377" fill="#507FC1" d="M27.397,30.178c-0.579,0-1.048,3.678-1.048,5.717c0,3.401,0.176,3.693,1.048,3.693
			c0.837,0,1.048-0.292,1.048-3.693C28.445,33.856,27.976,30.178,27.397,30.178z"/>
		<path opacity="0.0754" fill="#5E86C5" d="M27.421,30.62c-0.542,0-0.982,3.394-0.982,5.292c0,3.146,0.171,3.438,0.982,3.438
			c0.778,0,0.981-0.292,0.981-3.438C28.402,34.013,27.962,30.62,27.421,30.62z"/>
		<path opacity="0.1131" fill="#698DC9" d="M27.445,31.06c-0.505,0-0.915,3.11-0.915,4.867c0,2.892,0.165,3.182,0.915,3.182
			c0.72,0,0.915-0.29,0.915-3.182C28.359,34.17,27.949,31.06,27.445,31.06z"/>
		<path opacity="0.1508" fill="#7495CD" d="M27.469,31.5c-0.468,0-0.848,2.828-0.848,4.443c0,2.636,0.16,2.925,0.848,2.925
			c0.661,0,0.849-0.289,0.849-2.925C28.317,34.329,27.937,31.5,27.469,31.5z"/>
		<path opacity="0.1885" fill="#809DD1" d="M27.493,31.942c-0.431,0-0.782,2.544-0.782,4.018c0,2.382,0.154,2.67,0.782,2.67
			c0.603,0,0.782-0.288,0.782-2.67C28.274,34.486,27.923,31.942,27.493,31.942z"/>
		<path opacity="0.2262" fill="#8BA5D5" d="M27.517,32.382c-0.395,0-0.715,2.261-0.715,3.594c0,2.127,0.149,2.413,0.715,2.413
			c0.545,0,0.715-0.286,0.715-2.413C28.231,34.643,27.91,32.382,27.517,32.382z"/>
		<path opacity="0.2638" fill="#98AEDA" d="M27.54,32.823c-0.357,0-0.647,1.978-0.647,3.169c0,1.872,0.143,2.157,0.647,2.157
			c0.486,0,0.648-0.285,0.648-2.157C28.188,34.8,27.897,32.823,27.54,32.823z"/>
		<path opacity="0.3015" fill="#A3B7DF" d="M27.564,33.263c-0.321,0-0.581,1.694-0.581,2.745c0,1.617,0.138,1.9,0.581,1.9
			c0.428,0,0.581-0.283,0.581-1.9C28.146,34.958,27.885,33.263,27.564,33.263z"/>
		<path opacity="0.3392" fill="#B0C1E3" d="M27.588,33.705c-0.284,0-0.514,1.41-0.514,2.319c0,1.363,0.132,1.646,0.514,1.646
			c0.37,0,0.515-0.282,0.515-1.646C28.103,35.115,27.871,33.705,27.588,33.705z"/>
		<path opacity="0.3769" fill="#BDCBE8" d="M27.612,34.145c-0.248,0-0.448,1.128-0.448,1.896c0,1.107,0.127,1.389,0.448,1.389
			c0.311,0,0.448-0.281,0.448-1.389C28.061,35.273,27.858,34.145,27.612,34.145z"/>
		<path opacity="0.4146" fill="#CAD5ED" d="M27.636,34.585c-0.21,0-0.38,0.845-0.38,1.471c0,0.854,0.121,1.133,0.38,1.133
			c0.253,0,0.382-0.279,0.382-1.133C28.018,35.43,27.846,34.585,27.636,34.585z"/>
		<path opacity="0.4523" fill="#D8E0F2" d="M27.66,35.027c-0.174,0-0.314,0.561-0.314,1.046c0,0.598,0.116,0.877,0.314,0.877
			c0.193,0,0.314-0.279,0.314-0.877C27.975,35.587,27.832,35.027,27.66,35.027z"/>
		<ellipse opacity="0.49" fill="#E6ECF7" cx="27.684" cy="36.088" rx="0.247" ry="0.621"/>
	</g>
	<path fill="none" stroke="#00476B" stroke-width="1.5" d="M27.614,0.75c-9.542,0-17.276,7.734-17.276,17.274
		c0,9.543,7.734,17.275,17.276,17.275S44.89,27.567,44.89,18.024C44.89,8.484,37.156,0.75,27.614,0.75z"/>
	<radialGradient id="XMLID_29_" cx="19.2012" cy="3.7178" r="33.8872" gradientUnits="userSpaceOnUse">
		<stop  offset="0" style="stop-color:#9DB7D4"/>
		<stop  offset="0.3404" style="stop-color:#98B3CF"/>
		<stop  offset="0.8232" style="stop-color:#88A9C3"/>
		<stop  offset="1" style="stop-color:#81A4BE"/>
	</radialGradient>
	<path fill="url(#XMLID_29_)" d="M27.615,0.75c-9.543,0-17.276,7.735-17.276,17.275c0,9.543,7.733,17.275,17.276,17.275
		c9.54,0,17.273-7.732,17.273-17.275C44.889,8.485,37.155,0.75,27.615,0.75z M27.615,29.402c-6.283,0-11.377-5.092-11.377-11.377
		c0-6.283,5.094-11.376,11.377-11.376c6.282,0,11.378,5.093,11.378,11.376C38.993,24.31,33.897,29.402,27.615,29.402z"/>
	<path fill="none" d="M27.612,0.749c-9.54,0-17.274,7.732-17.274,17.277c0,9.541,7.734,17.275,17.274,17.275
		c9.543,0,17.276-7.734,17.276-17.275C44.889,8.481,37.155,0.749,27.612,0.749z M27.612,29.403c-6.28,0-11.376-5.094-11.376-11.376
		c0-6.283,5.096-11.379,11.376-11.379c6.284,0,11.377,5.096,11.377,11.379C38.989,24.309,33.896,29.403,27.612,29.403z"/>
	<path opacity="0.5" fill="#FFFFFF" d="M33.752,8.112c1.814,2.016,2.929,4.676,2.929,7.603c0,6.284-5.094,11.376-11.378,11.376
		c-2.925,0-5.585-1.114-7.602-2.931c2.083,2.314,5.092,3.776,8.448,3.776c6.281,0,11.377-5.095,11.377-11.376
		C37.526,13.203,36.063,10.195,33.752,8.112z"/>
	<linearGradient id="XMLID_30_" gradientUnits="userSpaceOnUse" x1="34.374" y1="30.0884" x2="20.6777" y2="5.7555">
		<stop  offset="0" style="stop-color:#EDF8FE"/>
		<stop  offset="0.5118" style="stop-color:#CFE7F5"/>
		<stop  offset="1" style="stop-color:#FFFFFF"/>
	</linearGradient>
	<circle fill="url(#XMLID_30_)" cx="27.613" cy="18.079" r="13.988"/>
	<g opacity="0.48">
		<path opacity="0" fill="none" stroke="#FFFFFF" stroke-width="0.25" d="M39.429,18.077c0,6.523-5.293,11.812-11.814,11.812
			C21.09,29.888,15.8,24.6,15.8,18.077S21.09,6.262,27.614,6.262C34.136,6.262,39.429,11.554,39.429,18.077z"/>
		<path opacity="0.056" fill="none" stroke="#FFFFFF" stroke-width="0.25" d="M39.581,18.077c0,6.607-5.361,11.964-11.967,11.964
			c-6.609,0-11.967-5.357-11.967-11.964c0-6.607,5.358-11.967,11.967-11.967C34.22,6.11,39.581,11.469,39.581,18.077z"/>
		<path opacity="0.112" fill="none" stroke="#FFFFFF" stroke-width="0.25" d="M39.733,18.077c0,6.691-5.43,12.116-12.119,12.116
			c-6.693,0-12.119-5.425-12.119-12.116S20.921,5.958,27.614,5.958C34.304,5.958,39.733,11.385,39.733,18.077z"/>
		<circle opacity="0.168" fill="none" stroke="#FFFFFF" stroke-width="0.25" cx="27.614" cy="18.077" r="12.271"/>
		<path opacity="0.224" fill="none" stroke="#FFFFFF" stroke-width="0.25" d="M40.037,18.077c0,6.859-5.564,12.422-12.423,12.422
			c-6.861,0-12.424-5.563-12.424-12.422c0-6.86,5.563-12.424,12.424-12.424C34.473,5.652,40.037,11.217,40.037,18.077z"/>
		<path opacity="0.28" fill="none" stroke="#FFFFFF" stroke-width="0.25" d="M40.189,18.077c0,6.944-5.633,12.574-12.575,12.574
			c-6.946,0-12.576-5.63-12.576-12.574c0-6.944,5.63-12.577,12.576-12.577C34.557,5.5,40.189,11.132,40.189,18.077z"/>
		<path opacity="0.336" fill="none" stroke="#FFFFFF" stroke-width="0.25" d="M40.342,18.077c0,7.028-5.701,12.727-12.728,12.727
			c-7.03,0-12.729-5.699-12.729-12.727c0-7.028,5.699-12.729,12.729-12.729C34.641,5.348,40.342,11.048,40.342,18.077z"/>
		<path opacity="0.392" fill="none" stroke="#FFFFFF" stroke-width="0.25" d="M40.494,18.077c0,7.112-5.77,12.879-12.88,12.879
			c-7.114,0-12.881-5.767-12.881-12.879c0-7.113,5.767-12.881,12.881-12.881C34.725,5.195,40.494,10.964,40.494,18.077z"/>
		<circle opacity="0.448" fill="none" stroke="#FFFFFF" stroke-width="0.25" cx="27.613" cy="18.077" r="13.032"/>
		<circle opacity="0.504" fill="none" stroke="#FFFFFF" stroke-width="0.25" cx="27.613" cy="18.077" r="13.185"/>
		<circle opacity="0.56" fill="none" stroke="#FFFFFF" stroke-width="0.25" cx="27.613" cy="18.077" r="13.337"/>
		<circle opacity="0.616" fill="none" stroke="#FFFFFF" stroke-width="0.25" cx="27.613" cy="18.077" r="13.489"/>
		<path opacity="0.672" fill="none" stroke="#FFFFFF" stroke-width="0.25" d="M41.255,18.077c0,7.533-6.109,13.642-13.641,13.642
			c-7.535,0-13.643-6.109-13.643-13.642c0-7.534,6.107-13.644,13.643-13.644C35.146,4.433,41.255,10.543,41.255,18.077z"/>
		<circle opacity="0.728" fill="none" stroke="#FFFFFF" stroke-width="0.25" cx="27.613" cy="18.077" r="13.793"/>
		<circle opacity="0.784" fill="none" stroke="#FFFFFF" stroke-width="0.25" cx="27.613" cy="18.077" r="13.946"/>
		<circle opacity="0.84" fill="none" stroke="#FFFFFF" stroke-width="0.25" cx="27.613" cy="18.077" r="14.098"/>
		<circle opacity="0.784" fill="none" stroke="#FFFFFF" stroke-width="0.25" cx="27.613" cy="18.077" r="14.3"/>
		<circle opacity="0.728" fill="none" stroke="#FFFFFF" stroke-width="0.25" cx="27.613" cy="18.077" r="14.503"/>
		<circle opacity="0.672" fill="none" stroke="#FFFFFF" stroke-width="0.25" cx="27.613" cy="18.077" r="14.705"/>
		<circle opacity="0.616" fill="none" stroke="#FFFFFF" stroke-width="0.25" cx="27.613" cy="18.077" r="14.908"/>
		<circle opacity="0.56" fill="none" stroke="#FFFFFF" stroke-width="0.25" cx="27.613" cy="18.077" r="15.11"/>
		<circle opacity="0.504" fill="none" stroke="#FFFFFF" stroke-width="0.25" cx="27.613" cy="18.077" r="15.313"/>
		<circle opacity="0.448" fill="none" stroke="#FFFFFF" stroke-width="0.25" cx="27.613" cy="18.077" r="15.515"/>
		<path opacity="0.392" fill="none" stroke="#FFFFFF" stroke-width="0.25" d="M43.331,18.077c0,8.681-7.039,15.72-15.717,15.72
			c-8.681,0-15.718-7.039-15.718-15.72c0-8.682,7.037-15.719,15.718-15.719C36.292,2.358,43.331,9.395,43.331,18.077z"/>
		<circle opacity="0.336" fill="none" stroke="#FFFFFF" stroke-width="0.25" cx="27.613" cy="18.077" r="15.92"/>
		<circle opacity="0.28" fill="none" stroke="#FFFFFF" stroke-width="0.25" cx="27.613" cy="18.077" r="16.122"/>
		<path opacity="0.224" fill="none" stroke="#FFFFFF" stroke-width="0.25" d="M43.938,18.077c0,9.017-7.312,16.327-16.324,16.327
			c-9.016,0-16.325-7.311-16.325-16.327c0-9.017,7.309-16.326,16.325-16.326C36.627,1.751,43.938,9.06,43.938,18.077z"/>
		<circle opacity="0.168" fill="none" stroke="#FFFFFF" stroke-width="0.25" cx="27.614" cy="18.077" r="16.527"/>
		<path opacity="0.112" fill="none" stroke="#FFFFFF" stroke-width="0.25" d="M44.343,18.077c0,9.24-7.492,16.732-16.729,16.732
			c-9.24,0-16.73-7.492-16.73-16.732c0-9.241,7.49-16.73,16.73-16.73C36.851,1.347,44.343,8.835,44.343,18.077z"/>
		<circle opacity="0.056" fill="none" stroke="#FFFFFF" stroke-width="0.25" cx="27.614" cy="18.077" r="16.932"/>
		<g>
			<path opacity="0" fill="none" stroke="#FFFFFF" stroke-width="0.25" d="M44.748,18.077c0,9.464-7.674,17.138-17.134,17.138
				c-9.463,0-17.135-7.673-17.135-17.138c0-9.465,7.672-17.135,17.135-17.135C37.074,0.942,44.748,8.612,44.748,18.077z"/>
		</g>
	</g>
	<g>
		<radialGradient id="XMLID_31_" cx="27.1333" cy="6.7095" r="2.5678" gradientUnits="userSpaceOnUse">
			<stop  offset="0" style="stop-color:#D5E9F4"/>
			<stop  offset="1" style="stop-color:#6BB6DF"/>
		</radialGradient>
		<path fill="url(#XMLID_31_)" d="M29.418,7.182c0,0.938-0.761,1.693-1.693,1.693c-0.936,0-1.698-0.756-1.698-1.693
			c0-0.935,0.763-1.695,1.698-1.695C28.657,5.487,29.418,6.247,29.418,7.182z"/>
		<radialGradient id="XMLID_32_" cx="27.4785" cy="6.9375" r="1.5417" gradientUnits="userSpaceOnUse">
			<stop  offset="0" style="stop-color:#749AB7"/>
			<stop  offset="1" style="stop-color:#115485"/>
		</radialGradient>
		<path fill="url(#XMLID_32_)" d="M29.02,6.938c0,0.85-0.689,1.542-1.542,1.542c-0.85,0-1.54-0.691-1.54-1.542
			c0-0.854,0.69-1.543,1.54-1.543C28.33,5.395,29.02,6.084,29.02,6.938z"/>
	</g>
	<g>
		
			<radialGradient id="XMLID_33_" cx="-263.7651" cy="-178.084" r="2.5684" gradientTransform="matrix(0.866 -0.5 0.5 0.866 339.0051 30.8036)" gradientUnits="userSpaceOnUse">
			<stop  offset="0" style="stop-color:#D5E9F4"/>
			<stop  offset="1" style="stop-color:#6BB6DF"/>
		</radialGradient>
		<circle fill="url(#XMLID_33_)" cx="22.288" cy="8.579" r="1.695"/>
		<radialGradient id="XMLID_34_" cx="21.9521" cy="8.4907" r="1.5422" gradientUnits="userSpaceOnUse">
			<stop  offset="0" style="stop-color:#749AB7"/>
			<stop  offset="1" style="stop-color:#115485"/>
		</radialGradient>
		<path fill="url(#XMLID_34_)" d="M23.286,7.718c0.427,0.736,0.176,1.68-0.564,2.108c-0.737,0.427-1.679,0.173-2.104-0.566
			c-0.428-0.739-0.173-1.68,0.563-2.103C21.921,6.729,22.858,6.982,23.286,7.718z"/>
	</g>
	<g>
		
			<radialGradient id="XMLID_35_" cx="-423.0229" cy="-484.0508" r="2.5681" gradientTransform="matrix(0.5 -0.866 0.866 0.5 648.2762 -111.5325)" gradientUnits="userSpaceOnUse">
			<stop  offset="0" style="stop-color:#D5E9F4"/>
			<stop  offset="1" style="stop-color:#6BB6DF"/>
		</radialGradient>
		<path fill="url(#XMLID_35_)" d="M19.126,11.039c0.813,0.467,1.091,1.504,0.624,2.315c-0.472,0.812-1.51,1.09-2.317,0.621
			c-0.814-0.467-1.09-1.503-0.622-2.316C17.281,10.849,18.315,10.571,19.126,11.039z"/>
		<radialGradient id="XMLID_36_" cx="17.9443" cy="12.5991" r="1.5422" gradientUnits="userSpaceOnUse">
			<stop  offset="0" style="stop-color:#749AB7"/>
			<stop  offset="1" style="stop-color:#115485"/>
		</radialGradient>
		<path fill="url(#XMLID_36_)" d="M18.714,11.265c0.739,0.421,0.992,1.364,0.565,2.104c-0.425,0.739-1.37,0.992-2.105,0.564
			c-0.739-0.426-0.99-1.369-0.565-2.108C17.036,11.09,17.976,10.837,18.714,11.265z"/>
	</g>
	<g>
		
			<radialGradient id="XMLID_37_" cx="-408.5029" cy="-828.6484" r="2.5687" gradientTransform="matrix(0 -1 1 0 844.9458 -390.0005)" gradientUnits="userSpaceOnUse">
			<stop  offset="0" style="stop-color:#D5E9F4"/>
			<stop  offset="1" style="stop-color:#6BB6DF"/>
		</radialGradient>
		<circle fill="url(#XMLID_37_)" cx="16.771" cy="17.914" r="1.697"/>
		<radialGradient id="XMLID_38_" cx="16.5269" cy="18.1592" r="1.5413" gradientUnits="userSpaceOnUse">
			<stop  offset="0" style="stop-color:#749AB7"/>
			<stop  offset="1" style="stop-color:#115485"/>
		</radialGradient>
		<circle fill="url(#XMLID_38_)" cx="16.525" cy="18.159" r="1.542"/>
	</g>
	<g>
		
			<radialGradient id="XMLID_39_" cx="-223.3472" cy="-1119.3623" r="2.5692" gradientTransform="matrix(-0.5 -0.866 0.866 -0.5 875.7494 -729.0056)" gradientUnits="userSpaceOnUse">
			<stop  offset="0" style="stop-color:#D5E9F4"/>
			<stop  offset="1" style="stop-color:#6BB6DF"/>
		</radialGradient>
		<path fill="url(#XMLID_39_)" d="M17.318,21.88c0.812-0.466,1.848-0.191,2.32,0.621c0.462,0.812,0.186,1.846-0.622,2.316
			c-0.813,0.47-1.851,0.192-2.316-0.621C16.229,23.386,16.507,22.349,17.318,21.88z"/>
		<radialGradient id="XMLID_40_" cx="18.0786" cy="23.6851" r="1.5425" gradientUnits="userSpaceOnUse">
			<stop  offset="0" style="stop-color:#749AB7"/>
			<stop  offset="1" style="stop-color:#115485"/>
		</radialGradient>
		<path fill="url(#XMLID_40_)" d="M17.309,22.352c0.734-0.43,1.679-0.174,2.104,0.561c0.428,0.741,0.173,1.682-0.563,2.107
			c-0.738,0.429-1.68,0.173-2.107-0.563C16.317,23.714,16.571,22.777,17.309,22.352z"/>
	</g>
	
		<radialGradient id="XMLID_41_" cx="877.5742" cy="-773.4067" r="2.5693" gradientTransform="matrix(-0.5 0.866 -0.866 -0.5 -193.3329 -1123.4148)" gradientUnits="userSpaceOnUse">
		<stop  offset="0" style="stop-color:#D5E9F4"/>
		<stop  offset="1" style="stop-color:#6BB6DF"/>
	</radialGradient>
	<path fill="url(#XMLID_41_)" d="M36.097,25.01c-0.81-0.466-1.087-1.503-0.618-2.313c0.467-0.812,1.505-1.088,2.315-0.625
		c0.813,0.47,1.086,1.509,0.622,2.316C37.946,25.205,36.908,25.481,36.097,25.01z"/>
	<radialGradient id="XMLID_42_" cx="37.2803" cy="23.4517" r="1.5432" gradientUnits="userSpaceOnUse">
		<stop  offset="0" style="stop-color:#749AB7"/>
		<stop  offset="1" style="stop-color:#115485"/>
	</radialGradient>
	<path fill="url(#XMLID_42_)" d="M36.507,24.788c-0.735-0.425-0.988-1.371-0.562-2.105c0.425-0.742,1.368-0.99,2.105-0.567
		c0.741,0.427,0.993,1.369,0.564,2.11C38.187,24.96,37.248,25.212,36.507,24.788z"/>
	<g>
		
			<radialGradient id="XMLID_43_" cx="862.4922" cy="-428.9287" r="2.5672" gradientTransform="matrix(0 1 -1 0 -390.0024 -844.9458)" gradientUnits="userSpaceOnUse">
			<stop  offset="0" style="stop-color:#D5E9F4"/>
			<stop  offset="1" style="stop-color:#6BB6DF"/>
		</radialGradient>
		<path fill="url(#XMLID_43_)" d="M38.453,19.828c-0.936,0.009-1.695-0.759-1.695-1.692s0.76-1.692,1.697-1.695
			c0.938,0,1.696,0.762,1.695,1.693C40.151,19.077,39.393,19.833,38.453,19.828z"/>
		<radialGradient id="XMLID_44_" cx="38.7002" cy="17.8882" r="1.5417" gradientUnits="userSpaceOnUse">
			<stop  offset="0" style="stop-color:#749AB7"/>
			<stop  offset="1" style="stop-color:#115485"/>
		</radialGradient>
		<path fill="url(#XMLID_44_)" d="M38.698,19.43c-0.851,0.003-1.542-0.69-1.541-1.538c-0.001-0.854,0.69-1.544,1.541-1.544
			c0.854,0,1.541,0.69,1.544,1.544C40.239,18.74,39.552,19.43,38.698,19.43z"/>
	</g>
	<g>
		
			<radialGradient id="XMLID_45_" cx="677.5156" cy="-137.667" r="2.5678" gradientTransform="matrix(0.5 0.866 -0.866 0.5 -420.8065 -505.9407)" gradientUnits="userSpaceOnUse">
			<stop  offset="0" style="stop-color:#D5E9F4"/>
			<stop  offset="1" style="stop-color:#6BB6DF"/>
		</radialGradient>
		<path fill="url(#XMLID_45_)" d="M37.904,14.168c-0.808,0.47-1.849,0.19-2.315-0.62c-0.47-0.812-0.188-1.848,0.62-2.316
			c0.816-0.47,1.85-0.189,2.314,0.617C38.995,12.663,38.719,13.702,37.904,14.168z"/>
		<radialGradient id="XMLID_46_" cx="37.1455" cy="12.3643" r="1.5422" gradientUnits="userSpaceOnUse">
			<stop  offset="0" style="stop-color:#749AB7"/>
			<stop  offset="1" style="stop-color:#115485"/>
		</radialGradient>
		<path fill="url(#XMLID_46_)" d="M37.919,13.698c-0.738,0.427-1.683,0.176-2.107-0.558c-0.429-0.742-0.173-1.685,0.562-2.11
			c0.741-0.425,1.682-0.176,2.111,0.567C38.906,12.333,38.655,13.275,37.919,13.698z"/>
	</g>
	<g>
		
			<radialGradient id="XMLID_47_" cx="371.9531" cy="21.5698" r="2.5667" gradientTransform="matrix(0.866 0.5 -0.5 0.866 -278.47 -196.6677)" gradientUnits="userSpaceOnUse">
			<stop  offset="0" style="stop-color:#D5E9F4"/>
			<stop  offset="1" style="stop-color:#6BB6DF"/>
		</radialGradient>
		<path fill="url(#XMLID_47_)" d="M34.595,9.541c-0.462,0.81-1.502,1.085-2.313,0.618c-0.81-0.467-1.089-1.506-0.619-2.317
			c0.469-0.816,1.507-1.087,2.311-0.621C34.792,7.69,35.069,8.728,34.595,9.541z"/>
		<radialGradient id="XMLID_48_" cx="33.04" cy="8.3569" r="1.5422" gradientUnits="userSpaceOnUse">
			<stop  offset="0" style="stop-color:#749AB7"/>
			<stop  offset="1" style="stop-color:#115485"/>
		</radialGradient>
		<path fill="url(#XMLID_48_)" d="M34.376,9.128c-0.428,0.737-1.371,0.99-2.107,0.563c-0.74-0.427-0.99-1.371-0.563-2.106
			c0.425-0.737,1.364-0.991,2.107-0.564C34.548,7.448,34.801,8.389,34.376,9.128z"/>
	</g>
	<linearGradient id="XMLID_49_" gradientUnits="userSpaceOnUse" x1="25.6104" y1="15.5093" x2="29.6172" y2="15.5093">
		<stop  offset="0" style="stop-color:#C94F5F"/>
		<stop  offset="0.4944" style="stop-color:#DC8F98"/>
		<stop  offset="1" style="stop-color:#CE5D6B"/>
	</linearGradient>
	<polygon fill="url(#XMLID_49_)" stroke="#983620" stroke-width="0.25" points="27.587,7.163 25.61,12.387 27.153,23.391 
		27.837,23.856 28.335,23.563 29.617,12.387 	"/>
	<circle fill="none" stroke="#FFFFFF" stroke-width="0.25" cx="27.614" cy="18.025" r="15.508"/>
	<circle fill="none" stroke="#526785" stroke-width="0.25" cx="27.614" cy="18.025" r="15.9"/>
	<linearGradient id="XMLID_50_" gradientUnits="userSpaceOnUse" x1="24.7021" y1="22.9146" x2="30.5254" y2="22.9146">
		<stop  offset="0" style="stop-color:#C94F5F"/>
		<stop  offset="0.4944" style="stop-color:#DC8F98"/>
		<stop  offset="1" style="stop-color:#CE5D6B"/>
	</linearGradient>
	<path fill="url(#XMLID_50_)" stroke="#983620" stroke-width="0.25" d="M30.525,22.915c0,0.869-0.557,1.572-1.242,1.572h-3.34
		c-0.686,0-1.241-0.704-1.241-1.572l0,0c0-0.869,0.556-1.573,1.241-1.573h3.34C29.969,21.342,30.525,22.046,30.525,22.915
		L30.525,22.915z"/>
	<path opacity="0.08" fill="#868CB4" d="M28.047,30.763c6.855-0.239,12.22-5.995,11.979-12.848c-0.035-1.025-0.209-2.01-0.477-2.953
		c-2.163,2.786-7.574,5.164-11.781,3.797c-7.53-2.442-10.731-1.62-12.567-0.306c0.002,0.109-0.008,0.218-0.005,0.329
		C15.437,25.638,21.189,31.003,28.047,30.763z"/>
	<g>
		<linearGradient id="XMLID_51_" gradientUnits="userSpaceOnUse" x1="7.0889" y1="44.1138" x2="7.0889" y2="58.2905">
			<stop  offset="0" style="stop-color:#7693C1"/>
			<stop  offset="1" style="stop-color:#5F7CAF"/>
		</linearGradient>
		<rect y="44.114" fill="url(#XMLID_51_)" width="14.178" height="14.177"/>
		<linearGradient id="XMLID_52_" gradientUnits="userSpaceOnUse" x1="7.0894" y1="56.7212" x2="7.0894" y2="45.6831">
			<stop  offset="0" style="stop-color:#B1CDD8"/>
			<stop  offset="1" style="stop-color:#E3EBF1"/>
		</linearGradient>
		<rect x="1.57" y="45.683" fill="url(#XMLID_52_)" width="11.038" height="11.038"/>
		<path opacity="0.64" fill="#FFFFFF" d="M12.393,45.894H1.752v8.975c0,0,0.951-13.281,0.516-7.081
			C2.305,48.019,7.074,45.894,12.393,45.894z"/>
	</g>
	<g>
		<linearGradient id="XMLID_53_" gradientUnits="userSpaceOnUse" x1="48.2764" y1="44.1138" x2="48.2764" y2="58.2905">
			<stop  offset="0" style="stop-color:#7693C1"/>
			<stop  offset="1" style="stop-color:#5F7CAF"/>
		</linearGradient>
		<rect x="41.188" y="44.114" fill="url(#XMLID_53_)" width="14.178" height="14.177"/>
		<linearGradient id="XMLID_54_" gradientUnits="userSpaceOnUse" x1="48.2764" y1="56.7212" x2="48.2764" y2="45.6831">
			<stop  offset="0" style="stop-color:#B1CDD8"/>
			<stop  offset="1" style="stop-color:#E3EBF1"/>
		</linearGradient>
		<rect x="42.758" y="45.683" fill="url(#XMLID_54_)" width="11.038" height="11.038"/>
		<path opacity="0.64" fill="#FFFFFF" d="M53.58,45.894H42.939v8.975c0,0,0.951-13.281,0.516-7.081
			C43.492,48.019,48.262,45.894,53.58,45.894z"/>
	</g>
	<g>
		<linearGradient id="XMLID_55_" gradientUnits="userSpaceOnUse" x1="27.6826" y1="44.1138" x2="27.6826" y2="58.2905">
			<stop  offset="0" style="stop-color:#7693C1"/>
			<stop  offset="1" style="stop-color:#5F7CAF"/>
		</linearGradient>
		<rect x="19.281" y="44.114" fill="url(#XMLID_55_)" width="16.803" height="14.177"/>
		<linearGradient id="XMLID_56_" gradientUnits="userSpaceOnUse" x1="27.6816" y1="56.7202" x2="27.6816" y2="45.6831">
			<stop  offset="0" style="stop-color:#B1CDD8"/>
			<stop  offset="1" style="stop-color:#E3EBF1"/>
		</linearGradient>
		<rect x="20.882" y="45.683" fill="url(#XMLID_56_)" width="13.601" height="11.037"/>
		<path opacity="0.64" fill="#FFFFFF" d="M31.706,45.856H21.065v8.974c0,0,0.951-13.281,0.516-7.08
			C21.618,47.98,26.388,45.856,31.706,45.856z"/>
	</g>
</g>
</svg>
