<?xml version="1.0" encoding="utf-8"?>
<!-- Generator: Adobe Illustrator 12.0.1, SVG Export Plug-In . SVG Version: 6.00 Build 51448)  -->
<!DOCTYPE svg PUBLIC "-//W3C//DTD SVG 1.1//EN" "http://www.w3.org/Graphics/SVG/1.1/DTD/svg11.dtd" [
	<!ENTITY ns_svg "http://www.w3.org/2000/svg">
	<!ENTITY ns_xlink "http://www.w3.org/1999/xlink">
]>
<svg  version="1.1" id="Layer_1" xmlns="&ns_svg;" xmlns:xlink="&ns_xlink;" width="59.841" height="61.229"
	 viewBox="0 0 59.841 61.229" overflow="visible" enable-background="new 0 0 59.841 61.229" xml:space="preserve">
<g>
	<g>
		<linearGradient id="XMLID_8_" gradientUnits="userSpaceOnUse" x1="61.4941" y1="63.502" x2="17.4353" y2="17.8892">
			<stop  offset="0.0022" style="stop-color:#E8EDF6"/>
			<stop  offset="0.0405" style="stop-color:#F2F5FB"/>
			<stop  offset="0.0839" style="stop-color:#F8FAFD"/>
			<stop  offset="0.4128" style="stop-color:#F8FAFD"/>
			<stop  offset="0.5515" style="stop-color:#EEF1F7"/>
			<stop  offset="1" style="stop-color:#D2DCEB"/>
		</linearGradient>
		<rect x="16.365" y="17.312" fill="url(#XMLID_8_)" width="42.655" height="43.099"/>
		<linearGradient id="XMLID_9_" gradientUnits="userSpaceOnUse" x1="37.6934" y1="16.4941" x2="37.6934" y2="61.23">
			<stop  offset="0" style="stop-color:#EBC38C"/>
			<stop  offset="0.2953" style="stop-color:#AC9B7A"/>
			<stop  offset="0.9703" style="stop-color:#2F5753"/>
			<stop  offset="1" style="stop-color:#285451"/>
		</linearGradient>
		<path fill="url(#XMLID_9_)" d="M59.021,16.494H15.546v44.735h44.295V16.494H59.021z M58.201,18.131c0,1.547,0,39.915,0,41.461
			c-1.545,0-39.473,0-41.016,0c0-1.546,0-39.914,0-41.461C18.729,18.131,56.656,18.131,58.201,18.131z"/>
		<linearGradient id="XMLID_10_" gradientUnits="userSpaceOnUse" x1="36.584" y1="37.7441" x2="16.9393" y2="16.3833">
			<stop  offset="0" style="stop-color:#FFFFFF"/>
			<stop  offset="1" style="stop-color:#010101"/>
		</linearGradient>
		<path opacity="0.25" fill="url(#XMLID_10_)" d="M17.943,18.165h-0.817v41.41h1.638c0,0,0-38.202,0-39.772c1.57,0,39.35,0,39.35,0
			v-1.638H17.943z"/>
	</g>
	<g>
		<linearGradient id="XMLID_11_" gradientUnits="userSpaceOnUse" x1="0.3608" y1="-2.9175" x2="9.2806" y2="19.0845">
			<stop  offset="0" style="stop-color:#9AD098"/>
			<stop  offset="0" style="stop-color:#2BA36B"/>
			<stop  offset="1" style="stop-color:#11864E"/>
		</linearGradient>
		<path fill="url(#XMLID_11_)" d="M2.945,22.843L0.259,7.534C0.086,6.211,0,5.244,0,4.629C0,1.7,2.444,0,5.463,0
			c3.073,0,5.302,1.547,5.302,4.17c0,0.826-0.088,1.879-0.259,3.161L7.818,22.843H2.945z"/>
		
			<radialGradient id="XMLID_12_" cx="24.3608" cy="0.3613" r="27.5211" gradientTransform="matrix(1 0 0 1 -20.998 0)" gradientUnits="userSpaceOnUse">
			<stop  offset="0" style="stop-color:#ABCE8E"/>
			<stop  offset="1" style="stop-color:#56AB73"/>
			<stop  offset="1" style="stop-color:#7ABA5D"/>
		</radialGradient>
		<path fill="url(#XMLID_12_)" d="M3.969,21.554L1.633,7.819c-0.149-1.148-0.225-1.99-0.225-2.523c0-2.548,1.313-3.822,3.938-3.822
			c2.673,0,4.012,1.141,4.012,3.423c0,0.716-0.076,1.633-0.224,2.748l-2.337,13.91H3.969z"/>
		<path opacity="0.6" fill="#FFFFFF" d="M8.375,2.576c0,0-2.11-1.41-5.204-0.149c-2.675,1.091-0.197,10.01-0.197,10.01
			S2.311,4.879,3.766,3.715C5.748,2.13,6.888,2.279,8.375,2.576z"/>
		<path opacity="0.12" fill="#010101" d="M4.4,21.158h2.081l1.883-9.91C8.364,11.248,6.581,19.176,4.4,21.158z"/>
		<g>
			<path fill="#FFFFFF" d="M9.641,29.661c0-1.165-0.42-2.17-1.262-3.014c-0.84-0.843-1.852-1.264-3.043-1.264
				c-1.188,0-2.203,0.421-3.043,1.264c-0.84,0.844-1.261,1.849-1.261,3.014c0,1.183,0.425,2.19,1.273,3.026
				c0.848,0.835,1.858,1.252,3.03,1.252c1.173,0,2.185-0.417,3.032-1.252C9.216,31.852,9.641,30.844,9.641,29.661z"/>
		</g>
		
			<linearGradient id="XMLID_13_" gradientUnits="userSpaceOnUse" x1="24.5708" y1="24.2998" x2="27.5161" y2="32.9642" gradientTransform="matrix(1 0 0 1 -20.998 0)">
			<stop  offset="0" style="stop-color:#9AD098"/>
			<stop  offset="0.0044" style="stop-color:#2BA36B"/>
			<stop  offset="1" style="stop-color:#11864E"/>
		</linearGradient>
		<path fill="url(#XMLID_13_)" d="M0.668,29.623c0-1.28,0.459-2.378,1.38-3.302c0.92-0.924,2.032-1.386,3.336-1.386
			c1.302,0,2.414,0.461,3.333,1.386c0.921,0.924,1.381,2.022,1.381,3.302c0,1.293-0.465,2.399-1.395,3.316
			c-0.927,0.913-2.036,1.371-3.319,1.371c-1.286,0-2.395-0.458-3.322-1.371C1.133,32.021,0.668,30.916,0.668,29.623z"/>
		
			<radialGradient id="XMLID_14_" cx="24.5186" cy="25.4985" r="12.0848" gradientTransform="matrix(1 0 0 1 -20.998 0)" gradientUnits="userSpaceOnUse">
			<stop  offset="0" style="stop-color:#ABCE8E"/>
			<stop  offset="1" style="stop-color:#56AB73"/>
			<stop  offset="1" style="stop-color:#7ABA5D"/>
		</radialGradient>
		<path fill="url(#XMLID_14_)" d="M1.68,29.631c0-1.014,0.367-1.887,1.096-2.621c0.731-0.733,1.613-1.099,2.646-1.099
			c1.034,0,1.917,0.366,2.647,1.099c0.731,0.734,1.097,1.607,1.097,2.621c0,1.027-0.368,1.904-1.107,2.632
			c-0.735,0.726-1.615,1.088-2.637,1.088c-1.019,0-1.897-0.362-2.635-1.088C2.05,31.535,1.68,30.658,1.68,29.631z"/>
		<path opacity="0.6" fill="#FFFFFF" d="M7.203,26.97c0,0-2.67-1.975-4.499,0.818c-1.556,2.373,0.654,4.5,0.654,4.5
			s-1.063-2.005,0.163-3.968C4.685,26.459,5.648,27.053,7.203,26.97z"/>
		<path opacity="0.12" fill="#231F20" d="M3.706,32.303c0,0,2.669,1.975,4.498-0.817c1.555-2.373-0.654-4.499-0.654-4.499
			s0.867,2.467-0.244,4.09C6.241,32.631,5.26,32.222,3.706,32.303z"/>
	</g>
	<polyline opacity="0.1" fill="none" stroke="#231F20" stroke-width="2" stroke-linecap="round" points="55.402,29.864 
		48.375,41.035 44.986,33.254 41.973,43.296 36.703,50.824 30.801,42.291 20.133,54.716 	"/>
	<polyline fill="none" stroke="#129A48" stroke-width="3" stroke-linecap="round" points="20.059,52.188 30.727,39.764 
		36.628,48.297 41.899,40.769 44.911,30.727 48.301,38.508 55.328,27.337 	"/>
	<polyline fill="none" stroke="#DBEABA" stroke-linecap="round" points="55.328,27.337 48.301,38.508 44.911,30.727 41.899,40.769 
		36.628,48.297 30.727,39.764 20.059,52.188 	"/>
</g>
</svg>
