<?xml version="1.0" encoding="utf-8"?>
<!-- Generator: Adobe Illustrator 12.0.1, SVG Export Plug-In . SVG Version: 6.00 Build 51448)  -->
<!DOCTYPE svg PUBLIC "-//W3C//DTD SVG 1.1//EN" "http://www.w3.org/Graphics/SVG/1.1/DTD/svg11.dtd" [
	<!ENTITY ns_svg "http://www.w3.org/2000/svg">
	<!ENTITY ns_xlink "http://www.w3.org/1999/xlink">
]>
<svg  version="1.1" id="Layer_1" xmlns="&ns_svg;" xmlns:xlink="&ns_xlink;" width="54.477" height="59.088"
	 viewBox="0 0 54.477 59.088" overflow="visible" enable-background="new 0 0 54.477 59.088" xml:space="preserve">
<g>
	
		<linearGradient id="XMLID_11_" gradientUnits="userSpaceOnUse" x1="63.4902" y1="39.6099" x2="68.8999" y2="55.5238" gradientTransform="matrix(1 0 0 1 -20.998 0)">
		<stop  offset="0" style="stop-color:#BD9B2F"/>
		<stop  offset="1" style="stop-color:#A67F2D"/>
	</linearGradient>
	<path fill="url(#XMLID_11_)" d="M37.158,49.386c0-2.35,0.842-4.367,2.533-6.064c1.689-1.696,3.73-2.543,6.127-2.543
		c2.393,0,4.434,0.847,6.123,2.543c1.691,1.697,2.535,3.715,2.535,6.064c0,2.377-0.857,4.406-2.561,6.089
		c-1.705,1.678-3.738,2.52-6.098,2.52c-2.365,0-4.396-0.842-6.102-2.52C38.012,53.792,37.158,51.763,37.158,49.386z"/>
	
		<linearGradient id="XMLID_12_" gradientUnits="userSpaceOnUse" x1="65.9443" y1="4.04" x2="73.8902" y2="55.1004" gradientTransform="matrix(1 0 0 1 -20.998 0)">
		<stop  offset="0" style="stop-color:#BD9B2F"/>
		<stop  offset="1" style="stop-color:#A67F2D"/>
	</linearGradient>
	<path fill="url(#XMLID_12_)" d="M42.122,37.6l-4.07-23.814c-0.263-2.058-0.393-3.563-0.393-4.519c0-4.555,3.704-7.201,8.281-7.201
		c4.656,0,8.035,2.406,8.035,6.488c0,1.284-0.134,2.924-0.393,4.918L49.509,37.6H42.122z"/>
	
		<radialGradient id="XMLID_13_" cx="63.5674" cy="2.0122" r="44.2581" gradientTransform="matrix(1 0 0 1 -20.998 0)" gradientUnits="userSpaceOnUse">
		<stop  offset="0" style="stop-color:#FEFDF0"/>
		<stop  offset="0.4922" style="stop-color:#FACE60"/>
		<stop  offset="1" style="stop-color:#FAEFB4"/>
	</radialGradient>
	<path fill="url(#XMLID_13_)" d="M43.544,36.093l-3.758-22.087c-0.24-1.848-0.359-3.201-0.359-4.059c0-4.098,2.109-6.146,6.33-6.146
		c4.301,0,6.451,1.834,6.451,5.504c0,1.152-0.121,2.625-0.361,4.419l-3.758,22.369H43.544z"/>
	<path opacity="0.7" fill="#FFFFFF" d="M50.435,5.574c0,0-3.391-2.268-8.367-0.239c-4.303,1.754-0.318,16.098-0.318,16.098
		S40.685,9.278,43.024,7.405C46.212,4.856,48.044,5.095,50.435,5.574z"/>
	<path opacity="0.12" fill="#231F20" d="M43.981,35.456h3.346l3.029-15.937C50.356,19.519,47.485,32.268,43.981,35.456z"/>
	
		<radialGradient id="XMLID_14_" cx="63.1094" cy="41.3354" r="23.5442" gradientTransform="matrix(1 0 0 1 -20.998 0)" gradientUnits="userSpaceOnUse">
		<stop  offset="0" style="stop-color:#FEFDF0"/>
		<stop  offset="0.4922" style="stop-color:#FACE60"/>
		<stop  offset="1" style="stop-color:#FAEFB4"/>
	</radialGradient>
	<path fill="url(#XMLID_14_)" d="M38.525,49.387c0-1.977,0.713-3.678,2.135-5.106c1.424-1.429,3.141-2.143,5.156-2.143
		c2.014,0,3.732,0.714,5.156,2.143c1.426,1.429,2.135,3.13,2.135,5.106c0,2.002-0.719,3.71-2.154,5.127
		c-1.438,1.414-3.148,2.121-5.137,2.121c-1.986,0-3.699-0.707-5.135-2.121C39.244,53.097,38.525,51.389,38.525,49.387z"/>
	<path opacity="0.7" fill="#FFFFFF" d="M49.283,44.205c0,0-5.201-3.848-8.764,1.594c-3.031,4.621,1.273,8.766,1.273,8.766
		s-2.072-3.904,0.318-7.729C44.379,43.207,46.256,44.363,49.283,44.205z"/>
	<path opacity="0.12" fill="#231F20" d="M42.471,54.594c0,0,5.199,3.847,8.764-1.594c3.029-4.622-1.273-8.767-1.273-8.767
		s1.688,4.808-0.477,7.97C47.41,55.231,45.498,54.436,42.471,54.594z"/>
	<g>
		
			<linearGradient id="XMLID_15_" gradientUnits="userSpaceOnUse" x1="607.3037" y1="-592.5112" x2="676.4772" y2="-576.3158" gradientTransform="matrix(0 1 1 0 605.3867 -605.3872)">
			<stop  offset="0" style="stop-color:#CEEDFC"/>
			<stop  offset="1" style="stop-color:#FFFFFF"/>
		</linearGradient>
		<rect x="12.53" y="1.998" fill="url(#XMLID_15_)" width="13.627" height="55.093"/>
		
			<radialGradient id="XMLID_16_" cx="618.1328" cy="-596.9443" r="51.4441" gradientTransform="matrix(0 1 1 0 605.3867 -605.3872)" gradientUnits="userSpaceOnUse">
			<stop  offset="0" style="stop-color:#BFB586"/>
			<stop  offset="1" style="stop-color:#8D97A8"/>
		</radialGradient>
		<path fill="url(#XMLID_16_)" d="M10.602,59.088h17.484V0H10.602v57.912V59.088z M12.954,2.353c1.831,0,10.945,0,12.778,0
			c0,2.209,0,52.174,0,54.382c-1.833,0-10.947,0-12.778,0C12.954,54.527,12.954,4.562,12.954,2.353z"/>
		<linearGradient id="XMLID_17_" gradientUnits="userSpaceOnUse" x1="19.3438" y1="56.9634" x2="19.3437" y2="2.1255">
			<stop  offset="0" style="stop-color:#129A48"/>
			<stop  offset="0.2389" style="stop-color:#B6D18E"/>
			<stop  offset="0.4292" style="stop-color:#FBF49C"/>
			<stop  offset="0.5885" style="stop-color:#FBF49C"/>
			<stop  offset="0.7788" style="stop-color:#E6A177"/>
			<stop  offset="1" style="stop-color:#CA313B"/>
		</linearGradient>
		<rect x="12.742" y="2.125" fill="url(#XMLID_17_)" stroke="#FFFFFF" width="13.203" height="54.838"/>
	</g>
	<linearGradient id="XMLID_18_" gradientUnits="userSpaceOnUse" x1="0" y1="4.7725" x2="7.7334" y2="4.7725">
		<stop  offset="0" style="stop-color:#A2A3B9"/>
		<stop  offset="0.146" style="stop-color:#677792"/>
		<stop  offset="1" style="stop-color:#99A8B8"/>
	</linearGradient>
	<rect y="3.765" fill="url(#XMLID_18_)" width="7.733" height="2.016"/>
	<linearGradient id="XMLID_19_" gradientUnits="userSpaceOnUse" x1="0" y1="29.5435" x2="7.7334" y2="29.5435">
		<stop  offset="0" style="stop-color:#A2A3B9"/>
		<stop  offset="0.146" style="stop-color:#677792"/>
		<stop  offset="1" style="stop-color:#99A8B8"/>
	</linearGradient>
	<rect y="28.536" fill="url(#XMLID_19_)" width="7.733" height="2.015"/>
	<linearGradient id="XMLID_20_" gradientUnits="userSpaceOnUse" x1="0" y1="54.3149" x2="7.7334" y2="54.3149">
		<stop  offset="0" style="stop-color:#A2A3B9"/>
		<stop  offset="0.146" style="stop-color:#677792"/>
		<stop  offset="1" style="stop-color:#99A8B8"/>
	</linearGradient>
	<rect y="53.307" fill="url(#XMLID_20_)" width="7.733" height="2.016"/>
</g>
</svg>
