<?xml version="1.0" encoding="utf-8"?>
<!-- Generator: Adobe Illustrator 12.0.1, SVG Export Plug-In . SVG Version: 6.00 Build 51448)  -->
<!DOCTYPE svg PUBLIC "-//W3C//DTD SVG 1.1//EN" "http://www.w3.org/Graphics/SVG/1.1/DTD/svg11.dtd" [
	<!ENTITY ns_svg "http://www.w3.org/2000/svg">
	<!ENTITY ns_xlink "http://www.w3.org/1999/xlink">
]>
<svg  version="1.1" id="Layer_1" xmlns="&ns_svg;" xmlns:xlink="&ns_xlink;" width="36.767" height="59.342"
	 viewBox="0 0 36.767 59.342" overflow="visible" enable-background="new 0 0 36.767 59.342" xml:space="preserve">
<g>
	<linearGradient id="XMLID_16_" gradientUnits="userSpaceOnUse" x1="18.2617" y1="29.2793" x2="18.2617" y2="29.2793">
		<stop  offset="0" style="stop-color:#A2A3B9"/>
		<stop  offset="0" style="stop-color:#677792"/>
		<stop  offset="1" style="stop-color:#99A8B8"/>
	</linearGradient>
	<path fill="url(#XMLID_16_)" d="M18.262,29.279"/>
	<path fill="url(#XMLID_16_)" d="M18.262,29.279"/>
	<linearGradient id="XMLID_18_" gradientUnits="userSpaceOnUse" x1="38.6162" y1="29.6714" x2="-1.1494" y2="29.6714">
		<stop  offset="0" style="stop-color:#A2A3B9"/>
		<stop  offset="0" style="stop-color:#677792"/>
		<stop  offset="1" style="stop-color:#99A8B8"/>
	</linearGradient>
	<path fill="url(#XMLID_18_)" d="M0.011,0.212l9.738-0.014l2.334,4.033h2.37V0h8.685v4.549h2.842l1.725-4.443h9.063v18.195h-3.558
		v4.653h-3.663v14.703h3.663v4.443c0,0,3.45-0.105,3.45,3.596c0,3.703,0,13.646,0,13.646H0.011V46.226c0,0-0.001-3.703,3.557-3.703
		v-4.812h3.317l-0.074-14.8H2.941l0.074-4.588H0L0.011,0.212z"/>
	<g>
		<linearGradient id="XMLID_19_" gradientUnits="userSpaceOnUse" x1="8.7383" y1="30.3193" x2="27.7842" y2="30.3193">
			<stop  offset="0" style="stop-color:#FFFFFF"/>
			<stop  offset="0.531" style="stop-color:#C6D0DC"/>
			<stop  offset="0.5538" style="stop-color:#C2CCD8"/>
			<stop  offset="0.7446" style="stop-color:#A2ADBE"/>
			<stop  offset="0.9002" style="stop-color:#919CB0"/>
			<stop  offset="1" style="stop-color:#8A96AA"/>
			<stop  offset="1" style="stop-color:#738099"/>
			<stop  offset="1" style="stop-color:#62718D"/>
			<stop  offset="1" style="stop-color:#5C6D89"/>
		</linearGradient>
		<rect x="8.738" y="22.941" fill="url(#XMLID_19_)" width="19.046" height="14.756"/>
		<linearGradient id="XMLID_20_" gradientUnits="userSpaceOnUse" x1="10.291" y1="30.5303" x2="27.7842" y2="30.5303">
			<stop  offset="0" style="stop-color:#010101"/>
			<stop  offset="0.4045" style="stop-color:#FFFFFF"/>
			<stop  offset="1" style="stop-color:#010101"/>
		</linearGradient>
		<path opacity="0.06" fill="url(#XMLID_20_)" d="M27.762,23.363c0,0-4.097,7.328-9.168,7.653c-5.068,0.323-8.303,6.143-8.303,6.682
			h17.493L27.762,23.363z"/>
	</g>
	<g>
		<linearGradient id="XMLID_21_" gradientUnits="userSpaceOnUse" x1="1.7236" y1="50.8403" x2="35.043" y2="50.8403">
			<stop  offset="0" style="stop-color:#FFFFFF"/>
			<stop  offset="0.531" style="stop-color:#C6D0DC"/>
			<stop  offset="0.5538" style="stop-color:#C2CCD8"/>
			<stop  offset="0.7446" style="stop-color:#A2ADBE"/>
			<stop  offset="0.9002" style="stop-color:#919CB0"/>
			<stop  offset="1" style="stop-color:#8A96AA"/>
			<stop  offset="1" style="stop-color:#738099"/>
			<stop  offset="1" style="stop-color:#62718D"/>
			<stop  offset="1" style="stop-color:#5C6D89"/>
		</linearGradient>
		<path fill="url(#XMLID_21_)" d="M1.785,57.661h33.254V47.139c0,0,0.228-3.089-2.907-3.089c-3.134,0-27.167,0-27.167,0
			s-3.241-0.5-3.241,2.617C1.724,49.784,1.785,57.661,1.785,57.661z"/>
		<linearGradient id="XMLID_22_" gradientUnits="userSpaceOnUse" x1="16.627" y1="52.4414" x2="35.041" y2="52.4414">
			<stop  offset="0" style="stop-color:#010101"/>
			<stop  offset="0.4045" style="stop-color:#FFFFFF"/>
			<stop  offset="1" style="stop-color:#010101"/>
		</linearGradient>
		<path opacity="0.06" fill="url(#XMLID_22_)" d="M35.021,47.222c0,0-4.313,5.337-9.652,5.572c-5.336,0.236-8.741,4.474-8.741,4.867
			h18.414L35.021,47.222z"/>
	</g>
	<g>
		<linearGradient id="XMLID_23_" gradientUnits="userSpaceOnUse" x1="1.6855" y1="9.353" x2="35.2412" y2="9.353">
			<stop  offset="0" style="stop-color:#FFFFFF"/>
			<stop  offset="0.531" style="stop-color:#C6D0DC"/>
			<stop  offset="0.5538" style="stop-color:#C2CCD8"/>
			<stop  offset="0.7446" style="stop-color:#A2ADBE"/>
			<stop  offset="0.9002" style="stop-color:#919CB0"/>
			<stop  offset="1" style="stop-color:#8A96AA"/>
			<stop  offset="1" style="stop-color:#738099"/>
			<stop  offset="1" style="stop-color:#62718D"/>
			<stop  offset="1" style="stop-color:#5C6D89"/>
		</linearGradient>
		<polygon fill="url(#XMLID_23_)" points="1.686,16.893 1.714,1.996 8.782,1.996 11.175,6.05 16.063,6.05 16.063,1.813 
			21.699,1.813 21.699,6.193 27.536,6.193 29.129,2.032 35.241,2.032 35.241,16.888 		"/>
		<linearGradient id="XMLID_24_" gradientUnits="userSpaceOnUse" x1="17.3691" y1="11.543" x2="35.2412" y2="11.543">
			<stop  offset="0" style="stop-color:#010101"/>
			<stop  offset="0.4045" style="stop-color:#FFFFFF"/>
			<stop  offset="1" style="stop-color:#010101"/>
		</linearGradient>
		<path opacity="0.06" fill="url(#XMLID_24_)" d="M35.22,6.192c0,0-4.187,5.471-9.365,5.711c-5.18,0.242-8.485,4.588-8.485,4.99
			h17.872L35.22,6.192z"/>
	</g>
	<g>
		<linearGradient id="XMLID_25_" gradientUnits="userSpaceOnUse" x1="4.667" y1="20.0566" x2="31.8193" y2="20.0566">
			<stop  offset="0" style="stop-color:#FFFFFF"/>
			<stop  offset="0.531" style="stop-color:#C6D0DC"/>
			<stop  offset="0.5465" style="stop-color:#BEC8D5"/>
			<stop  offset="0.6432" style="stop-color:#8F9AAF"/>
			<stop  offset="0.7279" style="stop-color:#737F99"/>
			<stop  offset="0.7966" style="stop-color:#62728E"/>
			<stop  offset="0.8407" style="stop-color:#5C6D89"/>
			<stop  offset="1" style="stop-color:#8A96AA"/>
		</linearGradient>
		<rect x="4.667" y="18.316" fill="url(#XMLID_25_)" width="27.152" height="3.481"/>
		<linearGradient id="XMLID_26_" gradientUnits="userSpaceOnUse" x1="4.667" y1="20.0566" x2="31.8193" y2="20.0566">
			<stop  offset="0" style="stop-color:#010101"/>
			<stop  offset="0.2434" style="stop-color:#FFFFFF"/>
			<stop  offset="1" style="stop-color:#010101"/>
		</linearGradient>
		<rect x="4.667" y="18.316" opacity="0.15" fill="url(#XMLID_26_)" width="27.152" height="3.481"/>
		<linearGradient id="XMLID_27_" gradientUnits="userSpaceOnUse" x1="13.2617" y1="20.4258" x2="31.8193" y2="20.4258">
			<stop  offset="0" style="stop-color:#010101"/>
			<stop  offset="0.4045" style="stop-color:#FFFFFF"/>
			<stop  offset="1" style="stop-color:#010101"/>
		</linearGradient>
		<path opacity="0.05" fill="url(#XMLID_27_)" d="M31.798,19.054c0,0-4.35,1.402-9.728,1.465c-5.378,0.062-8.809,1.175-8.809,1.278
			h18.558L31.798,19.054z"/>
	</g>
	<g>
		<linearGradient id="XMLID_28_" gradientUnits="userSpaceOnUse" x1="5.0342" y1="40.9292" x2="31.7334" y2="40.9292">
			<stop  offset="0" style="stop-color:#FFFFFF"/>
			<stop  offset="0.531" style="stop-color:#C6D0DC"/>
			<stop  offset="0.5465" style="stop-color:#BEC8D5"/>
			<stop  offset="0.6432" style="stop-color:#8F9AAF"/>
			<stop  offset="0.7279" style="stop-color:#737F99"/>
			<stop  offset="0.7966" style="stop-color:#62728E"/>
			<stop  offset="0.8407" style="stop-color:#5C6D89"/>
			<stop  offset="1" style="stop-color:#8A96AA"/>
		</linearGradient>
		<rect x="5.034" y="39.352" fill="url(#XMLID_28_)" width="26.699" height="3.155"/>
		<g>
			<linearGradient id="XMLID_29_" gradientUnits="userSpaceOnUse" x1="5.0342" y1="40.8477" x2="31.7334" y2="40.8477">
				<stop  offset="0" style="stop-color:#010101"/>
				<stop  offset="0.2434" style="stop-color:#FFFFFF"/>
				<stop  offset="1" style="stop-color:#010101"/>
			</linearGradient>
			<rect x="5.034" y="39.189" opacity="0.15" fill="url(#XMLID_29_)" width="26.699" height="3.318"/>
			<linearGradient id="XMLID_30_" gradientUnits="userSpaceOnUse" x1="13.4834" y1="41.1992" x2="31.7334" y2="41.1992">
				<stop  offset="0" style="stop-color:#010101"/>
				<stop  offset="0.4045" style="stop-color:#FFFFFF"/>
				<stop  offset="1" style="stop-color:#010101"/>
			</linearGradient>
			<path opacity="0.05" fill="url(#XMLID_30_)" d="M31.713,39.891c0,0-4.275,1.337-9.565,1.396c-5.286,0.059-8.664,1.121-8.664,1.22
				h18.25L31.713,39.891z"/>
		</g>
	</g>
</g>
</svg>
