<?xml version="1.0" encoding="utf-8"?>
<!-- Generator: Adobe Illustrator 12.0.1, SVG Export Plug-In . SVG Version: 6.00 Build 51448)  -->
<!DOCTYPE svg PUBLIC "-//W3C//DTD SVG 1.1//EN" "http://www.w3.org/Graphics/SVG/1.1/DTD/svg11.dtd" [
	<!ENTITY ns_svg "http://www.w3.org/2000/svg">
	<!ENTITY ns_xlink "http://www.w3.org/1999/xlink">
]>
<svg  version="1.1" id="Layer_1" xmlns="&ns_svg;" xmlns:xlink="&ns_xlink;" width="68.75" height="63.822"
	 viewBox="0 0 68.75 63.822" overflow="visible" enable-background="new 0 0 68.75 63.822" xml:space="preserve">
<g>
	<g>
		<g>
			<linearGradient id="XMLID_23_" gradientUnits="userSpaceOnUse" x1="30.5117" y1="29.2793" x2="30.5117" y2="29.2793">
				<stop  offset="0" style="stop-color:#A1A1B7"/>
				<stop  offset="0" style="stop-color:#677892"/>
				<stop  offset="1" style="stop-color:#98A6B6"/>
			</linearGradient>
			<path fill="url(#XMLID_23_)" d="M30.512,29.279"/>
			<path fill="url(#XMLID_23_)" d="M30.512,29.279"/>
			<linearGradient id="XMLID_25_" gradientUnits="userSpaceOnUse" x1="50.8662" y1="29.6709" x2="11.1006" y2="29.6709">
				<stop  offset="0" style="stop-color:#A1A1B7"/>
				<stop  offset="0" style="stop-color:#677892"/>
				<stop  offset="1" style="stop-color:#98A6B6"/>
			</linearGradient>
			<path fill="url(#XMLID_25_)" d="M12.261,0.212l9.738-0.014l2.334,4.033h2.37V0h8.685v4.549h2.842l1.725-4.443h9.063v18.195
				h-3.558v4.653h-3.663v14.704h3.663v4.443c0,0,3.45-0.105,3.45,3.596c0,3.703,0,13.646,0,13.646H12.261V46.226
				c0,0-0.001-3.703,3.557-3.703v-4.812h3.317l-0.074-14.8h-3.869l0.074-4.588H12.25L12.261,0.212z"/>
			<g>
				<linearGradient id="XMLID_26_" gradientUnits="userSpaceOnUse" x1="20.9883" y1="30.3188" x2="40.0342" y2="30.3188">
					<stop  offset="0" style="stop-color:#FFFFFF"/>
					<stop  offset="0.531" style="stop-color:#C5CFDB"/>
					<stop  offset="0.5582" style="stop-color:#C0CAD6"/>
					<stop  offset="0.7472" style="stop-color:#A1ABBB"/>
					<stop  offset="0.9012" style="stop-color:#8F9BAE"/>
					<stop  offset="1" style="stop-color:#8895A8"/>
					<stop  offset="1" style="stop-color:#748198"/>
					<stop  offset="1" style="stop-color:#63728D"/>
					<stop  offset="1" style="stop-color:#5D6D89"/>
				</linearGradient>
				<rect x="20.988" y="22.941" fill="url(#XMLID_26_)" width="19.046" height="14.755"/>
				<linearGradient id="XMLID_27_" gradientUnits="userSpaceOnUse" x1="22.541" y1="30.5298" x2="40.0342" y2="30.5298">
					<stop  offset="0" style="stop-color:#010101"/>
					<stop  offset="0.4045" style="stop-color:#FFFFFF"/>
					<stop  offset="1" style="stop-color:#010101"/>
				</linearGradient>
				<path opacity="0.06" fill="url(#XMLID_27_)" d="M40.012,23.363c0,0-4.097,7.328-9.168,7.653
					c-5.068,0.323-8.303,6.142-8.303,6.681h17.493L40.012,23.363z"/>
			</g>
			<g>
				<linearGradient id="XMLID_28_" gradientUnits="userSpaceOnUse" x1="13.9736" y1="50.8403" x2="47.293" y2="50.8403">
					<stop  offset="0" style="stop-color:#FFFFFF"/>
					<stop  offset="0.531" style="stop-color:#C5CFDB"/>
					<stop  offset="0.5582" style="stop-color:#C0CAD6"/>
					<stop  offset="0.7472" style="stop-color:#A1ABBB"/>
					<stop  offset="0.9012" style="stop-color:#8F9BAE"/>
					<stop  offset="1" style="stop-color:#8895A8"/>
					<stop  offset="1" style="stop-color:#748198"/>
					<stop  offset="1" style="stop-color:#63728D"/>
					<stop  offset="1" style="stop-color:#5D6D89"/>
				</linearGradient>
				<path fill="url(#XMLID_28_)" d="M14.035,57.661h33.254V47.138c0,0,0.228-3.089-2.907-3.089c-3.134,0-27.167,0-27.167,0
					s-3.241-0.499-3.241,2.617C13.974,49.784,14.035,57.661,14.035,57.661z"/>
				<linearGradient id="XMLID_29_" gradientUnits="userSpaceOnUse" x1="28.877" y1="52.4414" x2="47.291" y2="52.4414">
					<stop  offset="0" style="stop-color:#010101"/>
					<stop  offset="0.4045" style="stop-color:#FFFFFF"/>
					<stop  offset="1" style="stop-color:#010101"/>
				</linearGradient>
				<path opacity="0.06" fill="url(#XMLID_29_)" d="M47.271,47.222c0,0-4.313,5.336-9.652,5.572
					c-5.336,0.235-8.741,4.474-8.741,4.866h18.414L47.271,47.222z"/>
			</g>
			<g>
				<linearGradient id="XMLID_30_" gradientUnits="userSpaceOnUse" x1="13.9355" y1="9.353" x2="47.4912" y2="9.353">
					<stop  offset="0" style="stop-color:#FFFFFF"/>
					<stop  offset="0.531" style="stop-color:#C5CFDB"/>
					<stop  offset="0.5582" style="stop-color:#C0CAD6"/>
					<stop  offset="0.7472" style="stop-color:#A1ABBB"/>
					<stop  offset="0.9012" style="stop-color:#8F9BAE"/>
					<stop  offset="1" style="stop-color:#8895A8"/>
					<stop  offset="1" style="stop-color:#748198"/>
					<stop  offset="1" style="stop-color:#63728D"/>
					<stop  offset="1" style="stop-color:#5D6D89"/>
				</linearGradient>
				<polygon fill="url(#XMLID_30_)" points="13.936,16.893 13.964,1.996 21.032,1.996 23.425,6.05 28.313,6.05 28.313,1.813 
					33.949,1.813 33.949,6.193 39.786,6.193 41.379,2.032 47.491,2.032 47.491,16.888 				"/>
				<linearGradient id="XMLID_31_" gradientUnits="userSpaceOnUse" x1="29.6191" y1="11.5425" x2="47.4912" y2="11.5425">
					<stop  offset="0" style="stop-color:#010101"/>
					<stop  offset="0.4045" style="stop-color:#FFFFFF"/>
					<stop  offset="1" style="stop-color:#010101"/>
				</linearGradient>
				<path opacity="0.06" fill="url(#XMLID_31_)" d="M47.47,6.192c0,0-4.187,5.471-9.365,5.711c-5.18,0.242-8.485,4.588-8.485,4.99
					h17.872L47.47,6.192z"/>
			</g>
			<g>
				<linearGradient id="XMLID_32_" gradientUnits="userSpaceOnUse" x1="16.917" y1="20.0566" x2="44.0693" y2="20.0566">
					<stop  offset="0" style="stop-color:#FFFFFF"/>
					<stop  offset="0.531" style="stop-color:#C5CFDB"/>
					<stop  offset="0.543" style="stop-color:#BFC8D5"/>
					<stop  offset="0.6409" style="stop-color:#909AAF"/>
					<stop  offset="0.7266" style="stop-color:#748099"/>
					<stop  offset="0.7961" style="stop-color:#63718D"/>
					<stop  offset="0.8407" style="stop-color:#5D6D89"/>
					<stop  offset="1" style="stop-color:#8895A8"/>
				</linearGradient>
				<rect x="16.917" y="18.316" fill="url(#XMLID_32_)" width="27.152" height="3.481"/>
				<linearGradient id="XMLID_33_" gradientUnits="userSpaceOnUse" x1="16.917" y1="20.0566" x2="44.0693" y2="20.0566">
					<stop  offset="0" style="stop-color:#010101"/>
					<stop  offset="0.2434" style="stop-color:#FFFFFF"/>
					<stop  offset="1" style="stop-color:#010101"/>
				</linearGradient>
				<rect x="16.917" y="18.316" opacity="0.15" fill="url(#XMLID_33_)" width="27.152" height="3.481"/>
				<linearGradient id="XMLID_34_" gradientUnits="userSpaceOnUse" x1="25.5117" y1="20.4253" x2="44.0693" y2="20.4253">
					<stop  offset="0" style="stop-color:#010101"/>
					<stop  offset="0.4045" style="stop-color:#FFFFFF"/>
					<stop  offset="1" style="stop-color:#010101"/>
				</linearGradient>
				<path opacity="0.05" fill="url(#XMLID_34_)" d="M44.048,19.054c0,0-4.35,1.402-9.728,1.465
					c-5.378,0.062-8.809,1.175-8.809,1.278h18.558L44.048,19.054z"/>
			</g>
			<g>
				<linearGradient id="XMLID_35_" gradientUnits="userSpaceOnUse" x1="17.2842" y1="40.9292" x2="43.9834" y2="40.9292">
					<stop  offset="0" style="stop-color:#FFFFFF"/>
					<stop  offset="0.531" style="stop-color:#C5CFDB"/>
					<stop  offset="0.543" style="stop-color:#BFC8D5"/>
					<stop  offset="0.6409" style="stop-color:#909AAF"/>
					<stop  offset="0.7266" style="stop-color:#748099"/>
					<stop  offset="0.7961" style="stop-color:#63718D"/>
					<stop  offset="0.8407" style="stop-color:#5D6D89"/>
					<stop  offset="1" style="stop-color:#8895A8"/>
				</linearGradient>
				<rect x="17.284" y="39.351" fill="url(#XMLID_35_)" width="26.699" height="3.156"/>
				<g>
					<linearGradient id="XMLID_36_" gradientUnits="userSpaceOnUse" x1="17.2842" y1="40.8481" x2="43.9834" y2="40.8481">
						<stop  offset="0" style="stop-color:#010101"/>
						<stop  offset="0.2434" style="stop-color:#FFFFFF"/>
						<stop  offset="1" style="stop-color:#010101"/>
					</linearGradient>
					<rect x="17.284" y="39.189" opacity="0.15" fill="url(#XMLID_36_)" width="26.699" height="3.318"/>
					<linearGradient id="XMLID_37_" gradientUnits="userSpaceOnUse" x1="25.7334" y1="41.1992" x2="43.9834" y2="41.1992">
						<stop  offset="0" style="stop-color:#010101"/>
						<stop  offset="0.4045" style="stop-color:#FFFFFF"/>
						<stop  offset="1" style="stop-color:#010101"/>
					</linearGradient>
					<path opacity="0.05" fill="url(#XMLID_37_)" d="M43.963,39.891c0,0-4.275,1.337-9.565,1.396
						c-5.286,0.06-8.664,1.121-8.664,1.221h18.25L43.963,39.891z"/>
				</g>
			</g>
		</g>
		<path fill="none" stroke="#3D7F3D" d="M12.231,11.395"/>
		<path fill="none" stroke="#3D7F3D" d="M27.99,11.576"/>
		<g>
			<defs>
				<path id="XMLID_16_" d="M12.249,18.31h3.001v4.605h3.785l0.033,8.384c0,0,2.606,5.3,5.875,5.699H43.75V25.572h25v38.25H0V18.405
					L12.249,18.31z"/>
			</defs>
			<clipPath id="XMLID_38_">
				<use xlink:href="#XMLID_16_" />
			</clipPath>
			<path clip-path="url(#XMLID_38_)" fill="#1D8040" d="M49.571,58.285l16.21-13.76c0.713-0.617,0.713-1.617,0-2.236l-16.21-13.645
				c-0.522-0.452-1.307-0.588-1.986-0.342c-0.683,0.244-1.124,0.821-1.124,1.46c0,0,0,5.876,0,8.039
				c-1.048,0.028-17.636,0.057-17.636,0.057c-2.416,0-5.001-0.949-6.742-2.479c-0.955-0.839-2.091-2.23-2.063-4.09
				c0.11-7.926,5.059-7.926,6.682-7.926c0.958,0,1.751-0.643,1.819-1.472c0.068-0.829-0.616-1.562-1.565-1.676
				c-0.325-0.041-7.975-0.913-13.588,3.262c-1.612,1.2-4.81,4.218-4.81,9.299c0,1.184,0.174,2.477,0.579,3.885
				c2.343,8.133,9.744,12.797,20.298,12.797c0,0,16.274,0.027,17.026,0.053c0,2.116,0,7.657,0,7.657c0,0.64,0.441,1.217,1.124,1.461
				C48.265,58.874,49.049,58.738,49.571,58.285z"/>
			
				<radialGradient id="XMLID_39_" cx="-943.0566" cy="812.606" r="211.1139" gradientTransform="matrix(1.2222 0 0 -1.0606 1209.7325 907.4817)" gradientUnits="userSpaceOnUse">
				<stop  offset="0" style="stop-color:#AACC8C"/>
				<stop  offset="0.4922" style="stop-color:#55AA73"/>
				<stop  offset="1" style="stop-color:#7AB95C"/>
			</radialGradient>
			<path clip-path="url(#XMLID_38_)" fill="url(#XMLID_39_)" d="M64.207,43.33L48.415,57.034v-9.335c0,0-17.759,0.043-18.848,0.043
				c-11.096,0-16.706-5.271-18.527-11.598c-1.824-6.327,1.515-10.018,3.644-11.599c5.054-3.761,12.15-2.899,12.15-2.899
				c-6.21,0-8.431,4.104-8.506,9.489c-0.063,4.626,5.43,8.222,10.631,8.171c1.424-0.014,19.456-0.041,19.456-0.041v-8.584
				L64.207,43.33z"/>
			<g clip-path="url(#XMLID_38_)">
				
					<radialGradient id="XMLID_40_" cx="-938.1992" cy="812.9341" r="28.3901" gradientTransform="matrix(1.2222 0 0 -1.0606 1209.7325 907.4817)" gradientUnits="userSpaceOnUse">
					<stop  offset="0" style="stop-color:#AACC8C"/>
					<stop  offset="0.4922" style="stop-color:#55AA73"/>
					<stop  offset="1" style="stop-color:#7AB95C"/>
				</radialGradient>
				<path fill="url(#XMLID_40_)" d="M12.202,34.201c2.265,6.218,7.825,11.141,18.92,11.141c1.091,0,18.848-0.044,18.848-0.044v7.644
					l11.663-9.588l2.456,0.078L48.297,57.134v-9.335c0,0-17.759,0.044-18.843,0.044c-11.097,0-16.711-5.273-18.533-11.6
					c-1.395-4.852,0.242-8.148,2.044-10.138C11.291,28.171,11.52,32.322,12.202,34.201z"/>
				
					<radialGradient id="XMLID_41_" cx="-948.9033" cy="819.9976" r="10.385" gradientTransform="matrix(1.2222 0 0 -1.0606 1209.7325 907.4817)" gradientUnits="userSpaceOnUse">
					<stop  offset="0" style="stop-color:#AACC8C"/>
					<stop  offset="0.4922" style="stop-color:#55AA73"/>
					<stop  offset="1" style="stop-color:#7AB95C"/>
				</radialGradient>
				<polygon fill="url(#XMLID_41_)" points="49.97,42.147 48.297,39.253 48.297,30.783 49.97,33.695 				"/>
			</g>
			<g clip-path="url(#XMLID_38_)">
				
					<radialGradient id="XMLID_42_" cx="-937.582" cy="819.3696" r="11.5683" gradientTransform="matrix(1.2222 0 0 -1.0606 1209.7325 907.4817)" gradientUnits="userSpaceOnUse">
					<stop  offset="0" style="stop-color:#AACC8C"/>
					<stop  offset="0.4922" style="stop-color:#55AA73"/>
					<stop  offset="1" style="stop-color:#7AB95C"/>
				</radialGradient>
				<polygon opacity="0.55" fill="url(#XMLID_42_)" points="48.297,30.653 64.089,43.302 61.633,43.21 49.818,33.422 				"/>
				
					<radialGradient id="XMLID_43_" cx="-949.5229" cy="823.3628" r="18.7671" gradientTransform="matrix(1.2222 0 0 -1.0606 1209.7325 907.4817)" gradientUnits="userSpaceOnUse">
					<stop  offset="0" style="stop-color:#AACC8C"/>
					<stop  offset="0.4922" style="stop-color:#55AA73"/>
					<stop  offset="1" style="stop-color:#7AB95C"/>
				</radialGradient>
				<path opacity="0.55" fill="url(#XMLID_43_)" d="M49.846,42.023c-2.545,0.025-17.729,0.025-19.485,0.041
					c-5.204,0.053-14.036-2.308-13.981-11.008c0.024-4.25,3.706-8.937,8.503-9.489c0,0-0.061-0.006-0.142-0.014
					c1.202-0.009,1.975,0.083,1.975,0.083c-6.207,0-8.312,4.112-8.387,9.5c-0.063,4.626,5.309,8.211,10.513,8.16
					c1.423-0.013,19.453-0.04,19.453-0.04L49.846,42.023z"/>
			</g>
		</g>
	</g>
	<polyline fill="none" stroke="#1D8040" stroke-width="0.25" points="15.242,22.972 18.977,22.972 18.977,31.816 	"/>
</g>
</svg>
