<?xml version="1.0" encoding="utf-8"?>
<!-- Generator: Adobe Illustrator 12.0.1, SVG Export Plug-In . SVG Version: 6.00 Build 51448)  -->
<!DOCTYPE svg PUBLIC "-//W3C//DTD SVG 1.1//EN" "http://www.w3.org/Graphics/SVG/1.1/DTD/svg11.dtd" [
	<!ENTITY ns_svg "http://www.w3.org/2000/svg">
	<!ENTITY ns_xlink "http://www.w3.org/1999/xlink">
]>
<svg  version="1.1" id="Layer_1" xmlns="&ns_svg;" xmlns:xlink="&ns_xlink;" width="56.121" height="51.426"
	 viewBox="0 0 56.121 51.426" overflow="visible" enable-background="new 0 0 56.121 51.426" xml:space="preserve">
<g>
	<g>
		<radialGradient id="XMLID_9_" cx="28.6064" cy="33.5371" r="31.9966" gradientUnits="userSpaceOnUse">
			<stop  offset="0" style="stop-color:#8FB8DA"/>
			<stop  offset="0" style="stop-color:#EFF5FA"/>
			<stop  offset="0.2303" style="stop-color:#6DA2CD"/>
			<stop  offset="0.6209" style="stop-color:#649CCA"/>
			<stop  offset="0.7085" style="stop-color:#5D8CC1"/>
			<stop  offset="0.8673" style="stop-color:#516EAF"/>
			<stop  offset="1" style="stop-color:#649CCA"/>
		</radialGradient>
		<path opacity="0.49" fill="url(#XMLID_9_)" d="M28.097,8.219c-10.926,0-20.559,5.548-26.234,13.982L14.77,35.107
			c1.941-5.494,7.166-9.438,13.327-9.438c6.111,0,11.301,3.883,13.279,9.309L54.26,22.093C48.574,13.721,38.979,8.219,28.097,8.219z
			"/>
		<linearGradient id="XMLID_10_" gradientUnits="userSpaceOnUse" x1="1.8623" y1="21.6631" x2="54.2598" y2="21.6631">
			<stop  offset="0" style="stop-color:#010101"/>
			<stop  offset="0.4045" style="stop-color:#FFFFFF"/>
			<stop  offset="1" style="stop-color:#010101"/>
		</linearGradient>
		<path opacity="0.49" fill="url(#XMLID_10_)" d="M28.097,8.219c-10.926,0-20.559,5.548-26.234,13.982L14.77,35.107
			c1.941-5.494,7.166-9.438,13.327-9.438c6.111,0,11.301,3.883,13.279,9.309L54.26,22.093C48.574,13.721,38.979,8.219,28.097,8.219z
			"/>
		<linearGradient id="XMLID_11_" gradientUnits="userSpaceOnUse" x1="1.8623" y1="21.6631" x2="54.2598" y2="21.6631">
			<stop  offset="0.0056" style="stop-color:#78A3C6"/>
			<stop  offset="0.1404" style="stop-color:#99B8D4"/>
			<stop  offset="0.3718" style="stop-color:#D0DDEA"/>
			<stop  offset="0.4831" style="stop-color:#E6EEF4"/>
			<stop  offset="0.5447" style="stop-color:#DDE6F1"/>
			<stop  offset="0.6461" style="stop-color:#C4D3E5"/>
			<stop  offset="0.7747" style="stop-color:#9DB7D5"/>
			<stop  offset="0.924" style="stop-color:#6D97C1"/>
			<stop  offset="1" style="stop-color:#5088B7"/>
		</linearGradient>
		<path fill="url(#XMLID_11_)" stroke="#3B4299" d="M28.097,8.219c-10.926,0-20.559,5.548-26.234,13.982L14.77,35.107
			c1.941-5.494,7.166-9.438,13.327-9.438c6.111,0,11.301,3.883,13.279,9.309L54.26,22.093C48.574,13.721,38.979,8.219,28.097,8.219z
			"/>
		<g opacity="0.29">
			<path opacity="0" fill="#FFFFFF" d="M14.235,31.802c-2.172-2.527-4.789-5.162-4.851-8.182
				c-0.118-6.957,9.326-12.775,21.103-12.983c5.115-0.089,9.819,0.892,13.525,2.597c-3.961-2.761-9.944-4.467-16.609-4.349
				C15.628,9.096,5.85,15.256,5.979,22.215C6.045,26.153,9.399,29.575,14.235,31.802z"/>
			<path opacity="0.0554" fill="#FFFFFF" d="M13.999,31.593c-2.174-2.505-4.861-5.189-4.882-8.147
				C9.09,16.636,18.723,10.842,30.25,10.6c4.997-0.103,9.776,0.819,13.404,2.489c-4.053-2.706-9.855-4.285-16.379-4.151
				C15.747,9.176,5.676,15.363,5.82,22.219C5.893,26.085,9.342,29.386,13.999,31.593z"/>
			<path opacity="0.1108" fill="#FFFFFF" d="M13.762,31.385c-2.176-2.483-4.933-5.218-4.913-8.113
				c0.066-6.663,9.887-12.432,21.164-12.708c4.879-0.118,9.733,0.747,13.284,2.38c-4.146-2.65-9.766-4.103-16.15-3.953
				C15.865,9.257,5.501,15.47,5.66,22.224C5.741,26.018,9.284,29.196,13.762,31.385z"/>
			<path opacity="0.1662" fill="#FFFFFF" d="M13.525,31.177c-2.179-2.461-5.005-5.245-4.945-8.079
				c0.158-6.516,10.167-12.26,21.195-12.571c4.761-0.131,9.69,0.674,13.163,2.273c-4.236-2.596-9.677-3.921-15.92-3.755
				C15.983,9.337,5.328,15.576,5.5,22.229C5.588,25.95,9.227,29.007,13.525,31.177z"/>
			<path opacity="0.2215" fill="#FFFFFF" d="M13.289,30.969c-2.181-2.439-5.078-5.273-4.976-8.045
				c0.25-6.369,10.447-12.088,21.226-12.434c4.644-0.146,9.647,0.602,13.043,2.165c-4.329-2.54-9.588-3.738-15.69-3.558
				C16.102,9.418,5.153,15.683,5.341,22.233C5.437,25.882,9.169,28.817,13.289,30.969z"/>
			<path opacity="0.2769" fill="#FFFFFF" d="M13.052,30.76c-2.184-2.417-5.149-5.301-5.007-8.011
				c0.342-6.222,10.728-11.916,21.256-12.296c4.525-0.16,9.604,0.529,12.922,2.057c-4.421-2.485-9.499-3.557-15.46-3.36
				C16.22,9.499,4.979,15.79,5.181,22.238C5.284,25.814,9.111,28.628,13.052,30.76z"/>
			<path opacity="0.3323" fill="#FFFFFF" d="M12.815,30.552c-2.186-2.395-5.222-5.328-5.039-7.977
				C8.21,16.5,18.784,10.831,29.063,10.417c4.408-0.175,9.562,0.457,12.802,1.948c-4.514-2.43-9.41-3.374-15.231-3.162
				C16.339,9.579,4.805,15.897,5.021,22.242C5.132,25.746,9.054,28.438,12.815,30.552z"/>
			<path opacity="0.3877" fill="#FFFFFF" d="M12.579,30.344c-2.188-2.374-5.294-5.356-5.07-7.942
				c0.525-5.928,11.288-11.572,21.317-12.022c4.29-0.188,9.518,0.384,12.681,1.841c-4.604-2.375-9.32-3.192-15.001-2.964
				C16.457,9.66,4.631,16.003,4.862,22.247C4.98,25.679,8.996,28.249,12.579,30.344z"/>
			<path opacity="0.4431" fill="#FFFFFF" d="M12.342,30.135c-2.19-2.351-5.366-5.384-5.101-7.908
				c0.617-5.781,11.568-11.4,21.348-11.884c4.172-0.203,9.475,0.312,12.561,1.732c-4.697-2.319-9.232-3.01-14.772-2.766
				C16.576,9.741,4.457,16.11,4.703,22.251C4.828,25.611,8.938,28.06,12.342,30.135z"/>
			<path opacity="0.4985" fill="#FFFFFF" d="M12.105,29.927c-2.193-2.329-5.438-5.411-5.132-7.874
				c0.709-5.634,11.849-11.229,21.379-11.747c4.054-0.217,9.432,0.239,12.439,1.625c-4.789-2.265-9.143-2.828-14.542-2.568
				C16.694,9.821,4.283,16.217,4.543,22.256C4.676,25.543,8.881,27.87,12.105,29.927z"/>
			<path opacity="0.5538" fill="#FFFFFF" d="M11.868,29.719c-2.195-2.307-5.51-5.439-5.164-7.84
				c0.801-5.487,12.129-11.057,21.41-11.609c3.936-0.232,9.389,0.167,12.319,1.516C35.552,9.577,31.38,9.14,26.121,9.415
				C16.813,9.902,4.109,16.324,4.383,22.261C4.524,25.475,8.823,27.681,11.868,29.719z"/>
			<path opacity="0.6092" fill="#FFFFFF" d="M11.632,29.51c-2.198-2.285-5.583-5.467-5.195-7.806
				c0.893-5.34,12.409-10.885,21.44-11.472c3.818-0.246,9.346,0.094,12.198,1.409c-4.973-2.154-8.964-2.464-14.083-2.173
				C16.931,9.982,3.935,16.431,4.224,22.265C4.372,25.407,8.766,27.491,11.632,29.51z"/>
			<path opacity="0.6646" fill="#FFFFFF" d="M11.395,29.302c-2.2-2.263-5.655-5.495-5.227-7.771
				c0.985-5.193,12.689-10.713,21.471-11.335c3.7-0.26,9.303,0.022,12.078,1.3c-5.065-2.099-8.875-2.281-13.853-1.975
				C17.049,10.063,3.761,16.538,4.064,22.27C4.22,25.339,8.708,27.302,11.395,29.302z"/>
			<path opacity="0.72" fill="#FFFFFF" d="M11.158,29.094c-2.202-2.241-5.727-5.522-5.258-7.737
				c1.077-5.046,12.97-10.541,21.502-11.197c3.582-0.274,9.26-0.051,11.957,1.192c-5.157-2.044-8.786-2.1-13.623-1.777
				c-8.568,0.569-22.149,7.07-21.832,12.7C4.067,25.271,8.65,27.112,11.158,29.094z"/>
		</g>
	</g>
	<linearGradient id="XMLID_12_" gradientUnits="userSpaceOnUse" x1="28.0605" y1="19.9741" x2="28.0605" y2="19.9741">
		<stop  offset="0.0056" style="stop-color:#78A3C6"/>
		<stop  offset="0.1404" style="stop-color:#99B8D4"/>
		<stop  offset="0.3718" style="stop-color:#D0DDEA"/>
		<stop  offset="0.4831" style="stop-color:#E6EEF4"/>
		<stop  offset="0.5447" style="stop-color:#DDE6F1"/>
		<stop  offset="0.6461" style="stop-color:#C4D3E5"/>
		<stop  offset="0.7747" style="stop-color:#9DB7D5"/>
		<stop  offset="0.924" style="stop-color:#6D97C1"/>
		<stop  offset="1" style="stop-color:#5088B7"/>
	</linearGradient>
	
		<line fill="url(#XMLID_12_)" stroke="#3B4299" stroke-width="2" stroke-dasharray="3" x1="28.061" y1="0" x2="28.061" y2="39.948"/>
	<linearGradient id="XMLID_13_" gradientUnits="userSpaceOnUse" x1="0" y1="40.6494" x2="56.1211" y2="40.6494">
		<stop  offset="0.0056" style="stop-color:#78A3C6"/>
		<stop  offset="0.1404" style="stop-color:#99B8D4"/>
		<stop  offset="0.3718" style="stop-color:#D0DDEA"/>
		<stop  offset="0.4831" style="stop-color:#E6EEF4"/>
		<stop  offset="0.5447" style="stop-color:#DDE6F1"/>
		<stop  offset="0.6461" style="stop-color:#C4D3E5"/>
		<stop  offset="0.7747" style="stop-color:#9DB7D5"/>
		<stop  offset="0.924" style="stop-color:#6D97C1"/>
		<stop  offset="1" style="stop-color:#5088B7"/>
	</linearGradient>
	
		<line fill="url(#XMLID_13_)" stroke="#3B4299" stroke-width="2" stroke-dasharray="3" x1="0" y1="40.649" x2="56.121" y2="40.649"/>
	<g>
		<g>
		</g>
		<linearGradient id="XMLID_14_" gradientUnits="userSpaceOnUse" x1="17.418" y1="40.2852" x2="38.7031" y2="40.2852">
			<stop  offset="0" style="stop-color:#98752B"/>
			<stop  offset="1" style="stop-color:#6C4219"/>
		</linearGradient>
		<path fill="url(#XMLID_14_)" stroke="#796528" d="M28.011,29.645c-2.84,0.014-5.51,1.131-7.512,3.151
			c-1.997,2.017-3.094,4.694-3.081,7.536c0.014,2.844,1.133,5.508,3.154,7.509c2.016,2.001,4.691,3.096,7.533,3.085
			c5.869-0.029,10.62-4.825,10.598-10.691l0,0C38.672,34.371,33.88,29.62,28.011,29.645z M21.3,47.107
			c-1.822-1.809-2.833-4.217-2.843-6.779c-0.013-2.564,0.972-4.98,2.78-6.801c1.807-1.823,4.213-2.833,6.779-2.846
			c5.293-0.024,9.621,4.266,9.646,9.559l0,0c0.023,5.295-4.267,9.621-9.562,9.647C25.536,49.896,23.121,48.912,21.3,47.107z"/>
		<radialGradient id="XMLID_15_" cx="20.3965" cy="30.9609" r="23.5058" gradientUnits="userSpaceOnUse">
			<stop  offset="0" style="stop-color:#FEFDF0"/>
			<stop  offset="0.4922" style="stop-color:#FACE60"/>
			<stop  offset="1" style="stop-color:#FAEFB4"/>
		</radialGradient>
		<path fill="url(#XMLID_15_)" d="M38.083,40.282c0,5.537-4.488,10.023-10.024,10.023c-5.535,0-10.021-4.486-10.021-10.023
			c0-5.532,4.485-10.02,10.021-10.02C33.595,30.263,38.083,34.75,38.083,40.282z"/>
		<linearGradient id="XMLID_16_" gradientUnits="userSpaceOnUse" x1="17.5415" y1="44.1621" x2="38.5781" y2="44.1621">
			<stop  offset="0.0052" style="stop-color:#FFFFFF"/>
			<stop  offset="0.1271" style="stop-color:#FBFBFB"/>
			<stop  offset="0.2567" style="stop-color:#F0F0EE"/>
			<stop  offset="0.3899" style="stop-color:#DDDDD9"/>
			<stop  offset="0.5256" style="stop-color:#C2C2BB"/>
			<stop  offset="0.6632" style="stop-color:#9F9F94"/>
			<stop  offset="0.8024" style="stop-color:#757565"/>
			<stop  offset="0.9403" style="stop-color:#44442F"/>
			<stop  offset="1" style="stop-color:#2D2D15"/>
		</linearGradient>
		<path opacity="0.07" fill="url(#XMLID_16_)" d="M28.423,50.85c5.809-0.206,10.354-5.076,10.148-10.882
			c-0.03-0.87-0.176-1.705-0.402-2.501c-1.832,2.362-6.417,4.374-9.979,3.217c-6.378-2.07-9.091-1.373-10.646-0.261
			c0.004,0.094-0.005,0.187-0.002,0.28C17.745,46.51,22.617,51.054,28.423,50.85z"/>
		<g opacity="0.29">
			<path opacity="0" fill="#FFFFFF" d="M21.533,48.478c-1.431-1.783-2.312-4.077-2.359-6.597
				c-0.102-5.803,4.271-10.589,9.767-10.687c2.39-0.041,4.596,0.807,6.336,2.251c-1.87-2.324-4.676-3.786-7.788-3.733
				c-5.496,0.099-10.017,5.171-9.913,10.975C17.63,43.972,19.264,46.589,21.533,48.478z"/>
			<path opacity="0.0554" fill="#FFFFFF" d="M21.418,48.322c-1.401-1.791-2.259-4.12-2.287-6.588
				c-0.058-5.68,4.32-10.444,9.698-10.573c2.334-0.053,4.575,0.747,6.279,2.161c-1.913-2.279-4.633-3.634-7.679-3.566
				c-5.381,0.123-9.92,5.146-9.81,10.866C17.677,43.845,19.232,46.451,21.418,48.322z"/>
			<path opacity="0.1108" fill="#FFFFFF" d="M21.303,48.167c-1.371-1.798-2.206-4.163-2.214-6.579
				c-0.014-5.556,4.368-10.299,9.629-10.458c2.279-0.065,4.554,0.686,6.222,2.07c-1.955-2.234-4.59-3.482-7.57-3.4
				c-5.266,0.148-9.823,5.123-9.707,10.756C17.724,43.719,19.201,46.312,21.303,48.167z"/>
			<path opacity="0.1662" fill="#FFFFFF" d="M21.188,48.011c-1.341-1.806-2.153-4.206-2.142-6.57
				c0.03-5.433,4.416-10.155,9.561-10.344c2.224-0.078,4.533,0.625,6.164,1.979c-1.997-2.189-4.547-3.33-7.461-3.234
				c-5.151,0.173-9.726,5.099-9.604,10.647C17.771,43.592,19.169,46.173,21.188,48.011z"/>
			<path opacity="0.2215" fill="#FFFFFF" d="M21.073,47.855c-1.311-1.813-2.1-4.249-2.068-6.561c0.073-5.31,4.463-10.01,9.492-10.23
				c2.168-0.091,4.511,0.564,6.106,1.889c-2.039-2.144-4.503-3.178-7.352-3.068c-5.036,0.198-9.629,5.075-9.501,10.538
				C17.818,43.466,19.138,46.035,21.073,47.855z"/>
			<path opacity="0.2769" fill="#FFFFFF" d="M20.958,47.7c-1.281-1.821-2.047-4.292-1.996-6.552
				c0.117-5.186,4.512-9.866,9.424-10.116c2.113-0.104,4.49,0.504,6.049,1.798c-2.082-2.099-4.461-3.026-7.243-2.902
				c-4.921,0.222-9.533,5.05-9.398,10.428C17.866,43.34,19.106,45.896,20.958,47.7z"/>
			<path opacity="0.3323" fill="#FFFFFF" d="M20.844,47.545c-1.251-1.829-1.994-4.335-1.924-6.543
				c0.161-5.063,4.56-9.721,9.355-10.001c2.058-0.116,4.469,0.443,5.992,1.707c-2.124-2.054-4.417-2.874-7.134-2.735
				c-4.806,0.247-9.436,5.026-9.295,10.319C17.913,43.213,19.075,45.757,20.844,47.545z"/>
			<path opacity="0.3877" fill="#FFFFFF" d="M20.729,47.389c-1.221-1.837-1.941-4.377-1.851-6.534
				c0.204-4.939,4.608-9.576,9.287-9.887c2.002-0.128,4.448,0.383,5.934,1.617c-2.167-2.009-4.375-2.722-7.025-2.57
				c-4.691,0.272-9.338,5.002-9.191,10.21C17.96,43.087,19.043,45.619,20.729,47.389z"/>
			<path opacity="0.4431" fill="#FFFFFF" d="M20.614,47.234c-1.191-1.845-1.889-4.42-1.778-6.525
				c0.248-4.816,4.656-9.431,9.219-9.773c1.947-0.141,4.427,0.322,5.876,1.526c-2.208-1.963-4.331-2.569-6.916-2.403
				c-4.576,0.296-9.242,4.978-9.088,10.101C18.007,42.96,19.012,45.48,20.614,47.234z"/>
			<path opacity="0.4985" fill="#FFFFFF" d="M20.499,47.079c-1.161-1.853-1.836-4.464-1.706-6.516
				c0.292-4.692,4.705-9.287,9.15-9.659c1.891-0.154,4.406,0.262,5.819,1.435c-2.251-1.918-4.289-2.417-6.807-2.237
				c-4.461,0.321-9.145,4.954-8.985,9.991C18.055,42.834,18.98,45.342,20.499,47.079z"/>
			<path opacity="0.5538" fill="#FFFFFF" d="M20.384,46.923c-1.131-1.86-1.783-4.506-1.633-6.506
				c0.335-4.569,4.752-9.142,9.082-9.544c1.836-0.167,4.384,0.201,5.762,1.344c-2.293-1.874-4.245-2.266-6.698-2.071
				c-4.346,0.346-9.048,4.93-8.883,9.881C18.102,42.708,18.949,45.203,20.384,46.923z"/>
			<path opacity="0.6092" fill="#FFFFFF" d="M20.269,46.768c-1.101-1.868-1.73-4.549-1.561-6.498c0.379-4.446,4.8-8.998,9.013-9.43
				c1.781-0.179,4.363,0.14,5.705,1.253c-2.335-1.828-4.202-2.113-6.589-1.905c-4.231,0.371-8.951,4.906-8.779,9.772
				C18.149,42.582,18.917,45.064,20.269,46.768z"/>
			<path opacity="0.6646" fill="#FFFFFF" d="M20.154,46.612c-1.071-1.875-1.677-4.592-1.487-6.488
				c0.423-4.322,4.848-8.853,8.944-9.316c1.725-0.191,4.342,0.08,5.647,1.163c-2.377-1.784-4.159-1.961-6.48-1.739
				c-4.116,0.396-8.854,4.882-8.676,9.663C18.196,42.455,18.886,44.926,20.154,46.612z"/>
			<path opacity="0.72" fill="#FFFFFF" d="M20.039,46.457c-1.041-1.883-1.624-4.635-1.415-6.479
				c0.467-4.199,4.896-8.708,8.876-9.202c1.67-0.204,4.321,0.019,5.59,1.072c-2.42-1.738-4.116-1.809-6.371-1.572
				c-4.001,0.42-8.758,4.857-8.573,9.554C18.243,42.329,18.854,44.787,20.039,46.457z"/>
		</g>
		<g opacity="0.05">
			<path opacity="0" fill="#231F20" d="M34.705,32.645c1.465,1.752,2.352,3.988,2.352,6.427c0,5.615-4.678,10.172-10.44,10.172
				c-2.505,0-4.808-0.86-6.603-2.289c1.916,2.284,4.83,3.745,8.092,3.743c5.771,0,10.445-4.551,10.445-10.172
				C38.551,37.348,37.052,34.511,34.705,32.645z"/>
			<path opacity="0.0538" fill="#231F20" d="M34.833,32.819c1.434,1.759,2.272,4.045,2.25,6.45
				c-0.046,5.495-4.71,9.976-10.351,10.007c-2.447,0.013-4.787-0.801-6.545-2.2c1.962,2.24,4.789,3.596,7.982,3.58
				c5.649-0.025,10.293-4.548,10.328-10.035C38.518,37.511,37.116,34.729,34.833,32.819z"/>
			<path opacity="0.1077" fill="#231F20" d="M34.962,32.994c1.401,1.765,2.192,4.103,2.147,6.472
				c-0.093,5.375-4.742,9.781-10.262,9.843c-2.39,0.027-4.766-0.741-6.487-2.11c2.008,2.197,4.747,3.448,7.872,3.417
				c5.529-0.051,10.141-4.545,10.211-9.898C38.484,37.674,37.181,34.945,34.962,32.994z"/>
			<path opacity="0.1615" fill="#231F20" d="M35.09,33.169c1.37,1.771,2.113,4.16,2.046,6.495
				c-0.139,5.254-4.774,9.584-10.173,9.678c-2.332,0.04-4.745-0.682-6.429-2.021c2.054,2.154,4.705,3.3,7.762,3.254
				c5.408-0.077,9.987-4.542,10.093-9.761C38.45,37.837,37.244,35.163,35.09,33.169z"/>
			<path opacity="0.2154" fill="#231F20" d="M35.219,33.344c1.338,1.778,2.033,4.217,1.944,6.518
				c-0.187,5.134-4.807,9.389-10.084,9.514c-2.274,0.053-4.724-0.623-6.371-1.932c2.1,2.11,4.664,3.151,7.651,3.091
				c5.287-0.103,9.835-4.538,9.976-9.624C38.417,38,37.309,35.379,35.219,33.344z"/>
			<path opacity="0.2692" fill="#231F20" d="M35.347,33.519c1.307,1.785,1.954,4.274,1.843,6.541
				c-0.232,5.014-4.839,9.193-9.995,9.349c-2.216,0.066-4.703-0.564-6.313-1.843c2.146,2.067,4.622,3.003,7.542,2.928
				c5.166-0.128,9.683-4.535,9.858-9.487C38.384,38.164,37.373,35.597,35.347,33.519z"/>
			<path opacity="0.3231" fill="#231F20" d="M35.476,33.693c1.274,1.791,1.874,4.331,1.74,6.563
				c-0.279,4.894-4.872,8.997-9.906,9.184c-2.159,0.08-4.682-0.505-6.255-1.753c2.192,2.024,4.581,2.854,7.432,2.766
				c5.045-0.154,9.53-4.532,9.741-9.35C38.351,38.327,37.438,35.814,35.476,33.693z"/>
			<path opacity="0.3769" fill="#231F20" d="M35.604,33.868c1.244,1.798,1.796,4.389,1.639,6.586
				c-0.325,4.773-4.904,8.801-9.817,9.019c-2.1,0.093-4.661-0.445-6.197-1.664c2.238,1.98,4.539,2.706,7.321,2.602
				c4.924-0.18,9.377-4.528,9.623-9.213C38.316,38.49,37.501,36.031,35.604,33.868z"/>
			<path opacity="0.4308" fill="#231F20" d="M35.732,34.042c1.212,1.804,1.716,4.446,1.536,6.609
				c-0.372,4.653-4.936,8.605-9.728,8.854c-2.042,0.106-4.64-0.386-6.139-1.574c2.284,1.937,4.497,2.558,7.211,2.439
				c4.803-0.206,9.225-4.525,9.506-9.077C38.283,38.653,37.565,36.248,35.732,34.042z"/>
			<path opacity="0.4846" fill="#231F20" d="M35.86,34.217c1.181,1.811,1.637,4.503,1.435,6.632
				c-0.418,4.533-4.968,8.409-9.638,8.689c-1.985,0.12-4.619-0.327-6.082-1.485c2.33,1.894,4.456,2.409,7.102,2.276
				c4.682-0.231,9.072-4.522,9.389-8.939C38.25,38.816,37.63,36.465,35.86,34.217z"/>
			<path opacity="0.5385" fill="#231F20" d="M35.989,34.392c1.148,1.817,1.557,4.56,1.333,6.654
				c-0.466,4.413-5.001,8.214-9.55,8.525c-1.927,0.132-4.598-0.268-6.023-1.396c2.375,1.85,4.414,2.261,6.991,2.114
				c4.561-0.257,8.92-4.519,9.271-8.803C38.217,38.979,37.694,36.682,35.989,34.392z"/>
			<path opacity="0.5923" fill="#231F20" d="M36.117,34.567c1.117,1.824,1.478,4.617,1.231,6.677
				c-0.512,4.292-5.033,8.018-9.461,8.36c-1.869,0.146-4.577-0.209-5.965-1.307c2.422,1.807,4.373,2.113,6.881,1.951
				c4.44-0.283,8.767-4.515,9.153-8.666C38.183,39.143,37.758,36.899,36.117,34.567z"/>
			<path opacity="0.6462" fill="#231F20" d="M36.246,34.742c1.085,1.83,1.397,4.674,1.129,6.7c-0.559,4.172-5.065,7.822-9.372,8.196
				c-1.812,0.159-4.556-0.149-5.907-1.217c2.467,1.764,4.331,1.964,6.771,1.788c4.319-0.309,8.614-4.512,9.036-8.529
				C38.149,39.306,37.822,37.116,36.246,34.742z"/>
			<path opacity="0.7" fill="#231F20" d="M36.374,34.917c1.054,1.836,1.318,4.731,1.027,6.723c-0.604,4.052-5.098,7.626-9.282,8.031
				c-1.754,0.172-4.535-0.09-5.85-1.128c2.514,1.72,4.289,1.816,6.661,1.625c4.198-0.334,8.462-4.509,8.919-8.392
				C38.116,39.469,37.887,37.333,36.374,34.917z"/>
		</g>
	</g>
</g>
</svg>
